<?xml version="1.0" encoding="utf-8" standalone="no"?>
<!DOCTYPE svg PUBLIC "-//W3C//DTD SVG 1.1//EN"
  "http://www.w3.org/Graphics/SVG/1.1/DTD/svg11.dtd">
<!-- Created with matplotlib (http://matplotlib.org/) -->
<svg height="901pt" version="1.1" viewBox="0 0 1676 901" width="1676pt" xmlns="http://www.w3.org/2000/svg" xmlns:xlink="http://www.w3.org/1999/xlink">
 <defs>
  <style type="text/css">
*{stroke-linecap:butt;stroke-linejoin:round;stroke-miterlimit:100000;}
  </style>
 </defs>
 <g id="figure_1">
  <g id="patch_1">
   <path d="M 0 901.8 
L 1676.7 901.8 
L 1676.7 0 
L 0 0 
z
" style="fill:#ffffff;"/>
  </g>
  <g id="axes_1">
   <g id="patch_2">
    <path d="M 209.5875 811.62 
L 1509.03 811.62 
L 1509.03 90.18 
L 209.5875 90.18 
z
" style="fill:#ffffff;"/>
   </g>
   <g id="PolyCollection_1">
    <defs>
     <path d="M 209.5875 -123.856179 
L 209.5875 -90.18 
L 235.57635 -90.18 
L 261.5652 -90.18 
L 287.55405 -90.18 
L 313.5429 -90.18 
L 339.53175 -90.18 
L 365.5206 -90.18 
L 391.50945 -90.18 
L 417.4983 -90.18 
L 443.48715 -90.18 
L 469.476 -90.18 
L 495.46485 -90.18 
L 521.4537 -90.18 
L 547.44255 -90.18 
L 573.4314 -90.18 
L 599.42025 -90.18 
L 625.4091 -90.18 
L 651.39795 -90.18 
L 677.3868 -90.18 
L 703.37565 -90.18 
L 729.3645 -90.18 
L 755.35335 -90.18 
L 781.3422 -90.18 
L 807.33105 -90.18 
L 833.3199 -90.18 
L 859.30875 -90.18 
L 885.2976 -90.18 
L 911.28645 -90.18 
L 937.2753 -90.18 
L 963.26415 -90.18 
L 989.253 -90.18 
L 1015.24185 -90.18 
L 1041.2307 -90.18 
L 1067.21955 -90.18 
L 1093.2084 -90.18 
L 1119.19725 -90.18 
L 1145.1861 -90.18 
L 1171.17495 -90.18 
L 1197.1638 -90.18 
L 1223.15265 -90.18 
L 1249.1415 -90.18 
L 1275.13035 -90.18 
L 1301.1192 -90.18 
L 1327.10805 -90.18 
L 1353.0969 -90.18 
L 1379.08575 -90.18 
L 1405.0746 -90.18 
L 1431.06345 -90.18 
L 1457.0523 -90.18 
L 1483.04115 -90.18 
L 1509.03 -90.18 
L 1509.03 -123.856179 
L 1509.03 -123.856179 
L 1483.04115 -123.856179 
L 1457.0523 -123.856179 
L 1431.06345 -123.856179 
L 1405.0746 -123.856179 
L 1379.08575 -123.856179 
L 1353.0969 -123.856179 
L 1327.10805 -123.856179 
L 1301.1192 -123.856179 
L 1275.13035 -123.856179 
L 1249.1415 -123.856179 
L 1223.15265 -123.856179 
L 1197.1638 -123.856179 
L 1171.17495 -123.856179 
L 1145.1861 -123.856179 
L 1119.19725 -123.856179 
L 1093.2084 -123.856179 
L 1067.21955 -123.856179 
L 1041.2307 -123.856179 
L 1015.24185 -123.856179 
L 989.253 -123.856179 
L 963.26415 -123.856179 
L 937.2753 -123.856179 
L 911.28645 -123.856179 
L 885.2976 -123.856179 
L 859.30875 -123.856179 
L 833.3199 -123.856179 
L 807.33105 -123.856179 
L 781.3422 -123.856179 
L 755.35335 -123.856179 
L 729.3645 -123.856179 
L 703.37565 -123.856179 
L 677.3868 -123.856179 
L 651.39795 -123.856179 
L 625.4091 -123.856179 
L 599.42025 -123.856179 
L 573.4314 -123.856179 
L 547.44255 -123.856179 
L 521.4537 -123.856179 
L 495.46485 -123.856179 
L 469.476 -123.856179 
L 443.48715 -123.856179 
L 417.4983 -123.856179 
L 391.50945 -123.856179 
L 365.5206 -123.856179 
L 339.53175 -123.856179 
L 313.5429 -123.856179 
L 287.55405 -123.856179 
L 261.5652 -123.856179 
L 235.57635 -123.856179 
L 209.5875 -123.856179 
z
" id="maccb772882" style="stroke:#440154;"/>
    </defs>
    <g clip-path="url(#pf6da48be01)">
     <use style="fill:#440154;stroke:#440154;" x="0.0" xlink:href="#maccb772882" y="901.8"/>
    </g>
   </g>
   <g id="PolyCollection_2">
    <defs>
     <path d="M 209.5875 -222.979436 
L 209.5875 -123.856179 
L 235.57635 -123.856179 
L 261.5652 -123.856179 
L 287.55405 -123.856179 
L 313.5429 -123.856179 
L 339.53175 -123.856179 
L 365.5206 -123.856179 
L 391.50945 -123.856179 
L 417.4983 -123.856179 
L 443.48715 -123.856179 
L 469.476 -123.856179 
L 495.46485 -123.856179 
L 521.4537 -123.856179 
L 547.44255 -123.856179 
L 573.4314 -123.856179 
L 599.42025 -123.856179 
L 625.4091 -123.856179 
L 651.39795 -123.856179 
L 677.3868 -123.856179 
L 703.37565 -123.856179 
L 729.3645 -123.856179 
L 755.35335 -123.856179 
L 781.3422 -123.856179 
L 807.33105 -123.856179 
L 833.3199 -123.856179 
L 859.30875 -123.856179 
L 885.2976 -123.856179 
L 911.28645 -123.856179 
L 937.2753 -123.856179 
L 963.26415 -123.856179 
L 989.253 -123.856179 
L 1015.24185 -123.856179 
L 1041.2307 -123.856179 
L 1067.21955 -123.856179 
L 1093.2084 -123.856179 
L 1119.19725 -123.856179 
L 1145.1861 -123.856179 
L 1171.17495 -123.856179 
L 1197.1638 -123.856179 
L 1223.15265 -123.856179 
L 1249.1415 -123.856179 
L 1275.13035 -123.856179 
L 1301.1192 -123.856179 
L 1327.10805 -123.856179 
L 1353.0969 -123.856179 
L 1379.08575 -123.856179 
L 1405.0746 -123.856179 
L 1431.06345 -123.856179 
L 1457.0523 -123.856179 
L 1483.04115 -123.856179 
L 1509.03 -123.856179 
L 1509.03 -349.66716 
L 1509.03 -349.66716 
L 1483.04115 -346.986488 
L 1457.0523 -344.321087 
L 1431.06345 -341.658834 
L 1405.0746 -339.002568 
L 1379.08575 -336.389837 
L 1353.0969 -333.784841 
L 1327.10805 -331.196301 
L 1301.1192 -328.620416 
L 1275.13035 -326.061826 
L 1249.1415 -323.507987 
L 1223.15265 -320.939298 
L 1197.1638 -318.345635 
L 1171.17495 -315.720733 
L 1145.1861 -313.069291 
L 1119.19725 -310.391158 
L 1093.2084 -307.721482 
L 1067.21955 -304.989548 
L 1041.2307 -302.301368 
L 1015.24185 -299.584521 
L 989.253 -296.892504 
L 963.26415 -294.088109 
L 937.2753 -291.19389 
L 911.28645 -288.329624 
L 885.2976 -285.464515 
L 859.30875 -282.626913 
L 833.3199 -279.860038 
L 807.33105 -277.18407 
L 781.3422 -274.566959 
L 755.35335 -271.940812 
L 729.3645 -269.333163 
L 703.37565 -266.822286 
L 677.3868 -264.367766 
L 651.39795 -261.933981 
L 625.4091 -259.555116 
L 599.42025 -257.217378 
L 573.4314 -254.871856 
L 547.44255 -252.46263 
L 521.4537 -250.000989 
L 495.46485 -247.559187 
L 469.476 -245.087218 
L 443.48715 -242.597085 
L 417.4983 -240.178263 
L 391.50945 -237.781752 
L 365.5206 -235.520059 
L 339.53175 -233.283444 
L 313.5429 -231.034269 
L 287.55405 -228.884993 
L 261.5652 -226.77705 
L 235.57635 -224.685827 
L 209.5875 -222.979436 
z
" id="m6cf926b4aa" style="stroke:#31688e;"/>
    </defs>
    <g clip-path="url(#pf6da48be01)">
     <use style="fill:#31688e;stroke:#31688e;" x="0.0" xlink:href="#m6cf926b4aa" y="901.8"/>
    </g>
   </g>
   <g id="PolyCollection_3">
    <defs>
     <path d="M 209.5875 -435.271417 
L 209.5875 -222.979436 
L 235.57635 -224.685827 
L 261.5652 -226.77705 
L 287.55405 -228.884993 
L 313.5429 -231.034269 
L 339.53175 -233.283444 
L 365.5206 -235.520059 
L 391.50945 -237.781752 
L 417.4983 -240.178263 
L 443.48715 -242.597085 
L 469.476 -245.087218 
L 495.46485 -247.559187 
L 521.4537 -250.000989 
L 547.44255 -252.46263 
L 573.4314 -254.871856 
L 599.42025 -257.217378 
L 625.4091 -259.555116 
L 651.39795 -261.933981 
L 677.3868 -264.367766 
L 703.37565 -266.822286 
L 729.3645 -269.333163 
L 755.35335 -271.940812 
L 781.3422 -274.566959 
L 807.33105 -277.18407 
L 833.3199 -279.860038 
L 859.30875 -282.626913 
L 885.2976 -285.464515 
L 911.28645 -288.329624 
L 937.2753 -291.19389 
L 963.26415 -294.088109 
L 989.253 -296.892504 
L 1015.24185 -299.584521 
L 1041.2307 -302.301368 
L 1067.21955 -304.989548 
L 1093.2084 -307.721482 
L 1119.19725 -310.391158 
L 1145.1861 -313.069291 
L 1171.17495 -315.720733 
L 1197.1638 -318.345635 
L 1223.15265 -320.939298 
L 1249.1415 -323.507987 
L 1275.13035 -326.061826 
L 1301.1192 -328.620416 
L 1327.10805 -331.196301 
L 1353.0969 -333.784841 
L 1379.08575 -336.389837 
L 1405.0746 -339.002568 
L 1431.06345 -341.658834 
L 1457.0523 -344.321087 
L 1483.04115 -346.986488 
L 1509.03 -349.66716 
L 1509.03 -665.601014 
L 1509.03 -665.601014 
L 1483.04115 -662.991527 
L 1457.0523 -659.78745 
L 1431.06345 -655.46304 
L 1405.0746 -650.669804 
L 1379.08575 -644.065894 
L 1353.0969 -636.1271 
L 1327.10805 -629.411911 
L 1301.1192 -622.691666 
L 1275.13035 -616.870819 
L 1249.1415 -611.662274 
L 1223.15265 -607.277677 
L 1197.1638 -604.240753 
L 1171.17495 -602.073316 
L 1145.1861 -601.52763 
L 1119.19725 -599.883714 
L 1093.2084 -597.665935 
L 1067.21955 -593.882592 
L 1041.2307 -588.802498 
L 1015.24185 -585.721771 
L 989.253 -583.222182 
L 963.26415 -579.880527 
L 937.2753 -575.407697 
L 911.28645 -569.70405 
L 885.2976 -566.108076 
L 859.30875 -563.639802 
L 833.3199 -558.563497 
L 807.33105 -554.756769 
L 781.3422 -550.3523 
L 755.35335 -545.340744 
L 729.3645 -539.323284 
L 703.37565 -533.312479 
L 677.3868 -529.760231 
L 651.39795 -526.703558 
L 625.4091 -524.443198 
L 599.42025 -522.226827 
L 573.4314 -518.317811 
L 547.44255 -511.396879 
L 521.4537 -502.637316 
L 495.46485 -496.54306 
L 469.476 -489.554173 
L 443.48715 -483.728054 
L 417.4983 -478.931129 
L 391.50945 -475.460055 
L 365.5206 -469.992821 
L 339.53175 -463.952874 
L 313.5429 -457.412936 
L 287.55405 -451.720089 
L 261.5652 -445.389977 
L 235.57635 -440.083097 
L 209.5875 -435.271417 
z
" id="mc98d0056e8" style="stroke:#35b779;"/>
    </defs>
    <g clip-path="url(#pf6da48be01)">
     <use style="fill:#35b779;stroke:#35b779;" x="0.0" xlink:href="#mc98d0056e8" y="901.8"/>
    </g>
   </g>
   <g id="PolyCollection_4">
    <defs>
     <path d="M 209.5875 -488.867096 
L 209.5875 -435.271417 
L 235.57635 -440.083097 
L 261.5652 -445.389977 
L 287.55405 -451.720089 
L 313.5429 -457.412936 
L 339.53175 -463.952874 
L 365.5206 -469.992821 
L 391.50945 -475.460055 
L 417.4983 -478.931129 
L 443.48715 -483.728054 
L 469.476 -489.554173 
L 495.46485 -496.54306 
L 521.4537 -502.637316 
L 547.44255 -511.396879 
L 573.4314 -518.317811 
L 599.42025 -522.226827 
L 625.4091 -524.443198 
L 651.39795 -526.703558 
L 677.3868 -529.760231 
L 703.37565 -533.312479 
L 729.3645 -539.323284 
L 755.35335 -545.340744 
L 781.3422 -550.3523 
L 807.33105 -554.756769 
L 833.3199 -558.563497 
L 859.30875 -563.639802 
L 885.2976 -566.108076 
L 911.28645 -569.70405 
L 937.2753 -575.407697 
L 963.26415 -579.880527 
L 989.253 -583.222182 
L 1015.24185 -585.721771 
L 1041.2307 -588.802498 
L 1067.21955 -593.882592 
L 1093.2084 -597.665935 
L 1119.19725 -599.883714 
L 1145.1861 -601.52763 
L 1171.17495 -602.073316 
L 1197.1638 -604.240753 
L 1223.15265 -607.277677 
L 1249.1415 -611.662274 
L 1275.13035 -616.870819 
L 1301.1192 -622.691666 
L 1327.10805 -629.411911 
L 1353.0969 -636.1271 
L 1379.08575 -644.065894 
L 1405.0746 -650.669804 
L 1431.06345 -655.46304 
L 1457.0523 -659.78745 
L 1483.04115 -662.991527 
L 1509.03 -665.601014 
L 1509.03 -752.984331 
L 1509.03 -752.984331 
L 1483.04115 -749.949937 
L 1457.0523 -745.734929 
L 1431.06345 -740.851982 
L 1405.0746 -735.734678 
L 1379.08575 -727.46409 
L 1353.0969 -718.558265 
L 1327.10805 -709.653083 
L 1301.1192 -701.310507 
L 1275.13035 -694.22198 
L 1249.1415 -688.511178 
L 1223.15265 -684.075506 
L 1197.1638 -680.532141 
L 1171.17495 -677.249259 
L 1145.1861 -676.074814 
L 1119.19725 -674.92849 
L 1093.2084 -673.328153 
L 1067.21955 -669.721328 
L 1041.2307 -664.271843 
L 1015.24185 -662.317016 
L 989.253 -660.313463 
L 963.26415 -657.240411 
L 937.2753 -652.052379 
L 911.28645 -644.471413 
L 885.2976 -640.285304 
L 859.30875 -636.631611 
L 833.3199 -630.572652 
L 807.33105 -626.479761 
L 781.3422 -621.935677 
L 755.35335 -616.672083 
L 729.3645 -610.343695 
L 703.37565 -604.244219 
L 677.3868 -598.998956 
L 651.39795 -594.30711 
L 625.4091 -590.614405 
L 599.42025 -587.58277 
L 573.4314 -583.630705 
L 547.44255 -576.082707 
L 521.4537 -566.497556 
L 495.46485 -560.463478 
L 469.476 -552.689248 
L 443.48715 -544.272089 
L 417.4983 -539.386194 
L 391.50945 -536.007982 
L 365.5206 -529.748706 
L 339.53175 -521.891233 
L 313.5429 -514.535303 
L 287.55405 -507.085874 
L 261.5652 -500.280321 
L 235.57635 -494.255702 
L 209.5875 -488.867096 
z
" id="m1181fd6234" style="stroke:#fde725;"/>
    </defs>
    <g clip-path="url(#pf6da48be01)">
     <use style="fill:#fde725;stroke:#fde725;" x="0.0" xlink:href="#m1181fd6234" y="901.8"/>
    </g>
   </g>
   <g id="LineCollection_1">
    <path clip-path="url(#pf6da48be01)" d="M 209.5875 202.404 
L 1535.01885 202.404 
" style="fill:none;stroke:#808080;stroke-opacity:0.7;stroke-width:50.0;"/>
   </g>
   <g id="LineCollection_2">
    <path clip-path="url(#pf6da48be01)" d="M 209.5875 202.404 
L 1535.01885 202.404 
" style="fill:none;stroke:#000000;stroke-width:10.0;"/>
   </g>
   <g id="line2d_1">
    <path clip-path="url(#pf6da48be01)" d="M 209.5875 777.943821 
L 235.57635 777.943821 
L 261.5652 777.943821 
L 287.55405 777.943821 
L 313.5429 777.943821 
L 339.53175 777.943821 
L 365.5206 777.943821 
L 391.50945 777.943821 
L 417.4983 777.943821 
L 443.48715 777.943821 
L 469.476 777.943821 
L 495.46485 777.943821 
L 521.4537 777.943821 
L 547.44255 777.943821 
L 573.4314 777.943821 
L 599.42025 777.943821 
L 625.4091 777.943821 
L 651.39795 777.943821 
L 677.3868 777.943821 
L 703.37565 777.943821 
L 729.3645 777.943821 
L 755.35335 777.943821 
L 781.3422 777.943821 
L 807.33105 777.943821 
L 833.3199 777.943821 
L 859.30875 777.943821 
L 885.2976 777.943821 
L 911.28645 777.943821 
L 937.2753 777.943821 
L 963.26415 777.943821 
L 989.253 777.943821 
L 1015.24185 777.943821 
L 1041.2307 777.943821 
L 1067.21955 777.943821 
L 1093.2084 777.943821 
L 1119.19725 777.943821 
L 1145.1861 777.943821 
L 1171.17495 777.943821 
L 1197.1638 777.943821 
L 1223.15265 777.943821 
L 1249.1415 777.943821 
L 1275.13035 777.943821 
L 1301.1192 777.943821 
L 1327.10805 777.943821 
L 1353.0969 777.943821 
L 1379.08575 777.943821 
L 1405.0746 777.943821 
L 1431.06345 777.943821 
L 1457.0523 777.943821 
L 1483.04115 777.943821 
L 1509.03 777.943821 
" style="fill:none;stroke:#440154;stroke-linecap:square;"/>
   </g>
   <g id="line2d_2">
    <path clip-path="url(#pf6da48be01)" d="M 209.5875 678.820564 
L 235.57635 677.114173 
L 261.5652 675.02295 
L 287.55405 672.915007 
L 313.5429 670.765731 
L 339.53175 668.516556 
L 365.5206 666.279941 
L 391.50945 664.018248 
L 417.4983 661.621737 
L 443.48715 659.202915 
L 469.476 656.712782 
L 495.46485 654.240813 
L 521.4537 651.799011 
L 547.44255 649.33737 
L 573.4314 646.928144 
L 599.42025 644.582622 
L 625.4091 642.244884 
L 651.39795 639.866019 
L 677.3868 637.432234 
L 703.37565 634.977714 
L 729.3645 632.466837 
L 755.35335 629.859188 
L 781.3422 627.233041 
L 807.33105 624.61593 
L 833.3199 621.939962 
L 859.30875 619.173087 
L 885.2976 616.335485 
L 911.28645 613.470376 
L 937.2753 610.60611 
L 963.26415 607.711891 
L 989.253 604.907496 
L 1015.24185 602.215479 
L 1041.2307 599.498632 
L 1067.21955 596.810452 
L 1093.2084 594.078518 
L 1119.19725 591.408842 
L 1145.1861 588.730709 
L 1171.17495 586.079267 
L 1197.1638 583.454365 
L 1223.15265 580.860702 
L 1249.1415 578.292013 
L 1275.13035 575.738174 
L 1301.1192 573.179584 
L 1327.10805 570.603699 
L 1353.0969 568.015159 
L 1379.08575 565.410163 
L 1405.0746 562.797432 
L 1431.06345 560.141166 
L 1457.0523 557.478913 
L 1483.04115 554.813512 
L 1509.03 552.13284 
" style="fill:none;stroke:#31688e;stroke-linecap:square;"/>
   </g>
   <g id="line2d_3">
    <path clip-path="url(#pf6da48be01)" d="M 209.5875 466.528583 
L 235.57635 461.716903 
L 261.5652 456.410023 
L 287.55405 450.079911 
L 313.5429 444.387064 
L 339.53175 437.847126 
L 365.5206 431.807179 
L 391.50945 426.339945 
L 417.4983 422.868871 
L 443.48715 418.071946 
L 469.476 412.245827 
L 495.46485 405.25694 
L 521.4537 399.162684 
L 547.44255 390.403121 
L 573.4314 383.482189 
L 599.42025 379.573173 
L 625.4091 377.356802 
L 651.39795 375.096442 
L 677.3868 372.039769 
L 703.37565 368.487521 
L 729.3645 362.476716 
L 755.35335 356.459256 
L 781.3422 351.4477 
L 807.33105 347.043231 
L 833.3199 343.236503 
L 859.30875 338.160198 
L 885.2976 335.691924 
L 911.28645 332.09595 
L 937.2753 326.392303 
L 963.26415 321.919473 
L 989.253 318.577818 
L 1015.24185 316.078229 
L 1041.2307 312.997502 
L 1067.21955 307.917408 
L 1093.2084 304.134065 
L 1119.19725 301.916286 
L 1145.1861 300.27237 
L 1171.17495 299.726684 
L 1197.1638 297.559247 
L 1223.15265 294.522323 
L 1249.1415 290.137726 
L 1275.13035 284.929181 
L 1301.1192 279.108334 
L 1327.10805 272.388089 
L 1353.0969 265.6729 
L 1379.08575 257.734106 
L 1405.0746 251.130196 
L 1431.06345 246.33696 
L 1457.0523 242.01255 
L 1483.04115 238.808473 
L 1509.03 236.198986 
" style="fill:none;stroke:#35b779;stroke-linecap:square;"/>
   </g>
   <g id="line2d_4">
    <path clip-path="url(#pf6da48be01)" d="M 209.5875 412.932904 
L 235.57635 407.544298 
L 261.5652 401.519679 
L 287.55405 394.714126 
L 313.5429 387.264697 
L 339.53175 379.908767 
L 365.5206 372.051294 
L 391.50945 365.792018 
L 417.4983 362.413806 
L 443.48715 357.527911 
L 469.476 349.110752 
L 495.46485 341.336522 
L 521.4537 335.302444 
L 547.44255 325.717293 
L 573.4314 318.169295 
L 599.42025 314.21723 
L 625.4091 311.185595 
L 651.39795 307.49289 
L 677.3868 302.801044 
L 703.37565 297.555781 
L 729.3645 291.456305 
L 755.35335 285.127917 
L 781.3422 279.864323 
L 807.33105 275.320239 
L 833.3199 271.227348 
L 859.30875 265.168389 
L 885.2976 261.514696 
L 911.28645 257.328587 
L 937.2753 249.747621 
L 963.26415 244.559589 
L 989.253 241.486537 
L 1015.24185 239.482984 
L 1041.2307 237.528157 
L 1067.21955 232.078672 
L 1093.2084 228.471847 
L 1119.19725 226.87151 
L 1145.1861 225.725186 
L 1171.17495 224.550741 
L 1197.1638 221.267859 
L 1223.15265 217.724494 
L 1249.1415 213.288822 
L 1275.13035 207.57802 
L 1301.1192 200.489493 
L 1327.10805 192.146917 
L 1353.0969 183.241735 
L 1379.08575 174.33591 
L 1405.0746 166.065322 
L 1431.06345 160.948018 
L 1457.0523 156.065071 
L 1483.04115 151.850063 
L 1509.03 148.815669 
" style="fill:none;stroke:#fde725;stroke-linecap:square;"/>
   </g>
   <g id="patch_3">
    <path d="M 209.5875 90.18 
L 1509.03 90.18 
" style="fill:none;stroke:#000000;stroke-linecap:square;stroke-linejoin:miter;"/>
   </g>
   <g id="patch_4">
    <path d="M 1509.03 811.62 
L 1509.03 90.18 
" style="fill:none;stroke:#000000;stroke-linecap:square;stroke-linejoin:miter;"/>
   </g>
   <g id="patch_5">
    <path d="M 209.5875 811.62 
L 1509.03 811.62 
" style="fill:none;stroke:#000000;stroke-linecap:square;stroke-linejoin:miter;"/>
   </g>
   <g id="patch_6">
    <path d="M 209.5875 811.62 
L 209.5875 90.18 
" style="fill:none;stroke:#000000;stroke-linecap:square;stroke-linejoin:miter;"/>
   </g>
   <g id="matplotlib.axis_1">
    <g id="xtick_1">
     <g id="line2d_5">
      <defs>
       <path d="M 0 0 
L 0 -4 
" id="m8cd9082dd4" style="stroke:#000000;stroke-width:0.5;"/>
      </defs>
      <g>
       <use style="stroke:#000000;stroke-width:0.5;" x="209.5875" xlink:href="#m8cd9082dd4" y="811.62"/>
      </g>
     </g>
     <g id="line2d_6">
      <defs>
       <path d="M 0 0 
L 0 4 
" id="mdaa6a69ac7" style="stroke:#000000;stroke-width:0.5;"/>
      </defs>
      <g>
       <use style="stroke:#000000;stroke-width:0.5;" x="209.5875" xlink:href="#mdaa6a69ac7" y="90.18"/>
      </g>
     </g>
     <g id="text_1">
      <!-- 1961 -->
      <defs>
       <path d="M 12.40625 8.296875 
L 28.515625 8.296875 
L 28.515625 63.921875 
L 10.984375 60.40625 
L 10.984375 69.390625 
L 28.421875 72.90625 
L 38.28125 72.90625 
L 38.28125 8.296875 
L 54.390625 8.296875 
L 54.390625 0 
L 12.40625 0 
z
" id="DejaVuSans-31"/>
       <path d="M 10.984375 1.515625 
L 10.984375 10.5 
Q 14.703125 8.734375 18.5 7.8125 
Q 22.3125 6.890625 25.984375 6.890625 
Q 35.75 6.890625 40.890625 13.453125 
Q 46.046875 20.015625 46.78125 33.40625 
Q 43.953125 29.203125 39.59375 26.953125 
Q 35.25 24.703125 29.984375 24.703125 
Q 19.046875 24.703125 12.671875 31.3125 
Q 6.296875 37.9375 6.296875 49.421875 
Q 6.296875 60.640625 12.9375 67.421875 
Q 19.578125 74.21875 30.609375 74.21875 
Q 43.265625 74.21875 49.921875 64.515625 
Q 56.59375 54.828125 56.59375 36.375 
Q 56.59375 19.140625 48.40625 8.859375 
Q 40.234375 -1.421875 26.421875 -1.421875 
Q 22.703125 -1.421875 18.890625 -0.6875 
Q 15.09375 0.046875 10.984375 1.515625 
M 30.609375 32.421875 
Q 37.25 32.421875 41.125 36.953125 
Q 45.015625 41.5 45.015625 49.421875 
Q 45.015625 57.28125 41.125 61.84375 
Q 37.25 66.40625 30.609375 66.40625 
Q 23.96875 66.40625 20.09375 61.84375 
Q 16.21875 57.28125 16.21875 49.421875 
Q 16.21875 41.5 20.09375 36.953125 
Q 23.96875 32.421875 30.609375 32.421875 
" id="DejaVuSans-39"/>
       <path d="M 33.015625 40.375 
Q 26.375 40.375 22.484375 35.828125 
Q 18.609375 31.296875 18.609375 23.390625 
Q 18.609375 15.53125 22.484375 10.953125 
Q 26.375 6.390625 33.015625 6.390625 
Q 39.65625 6.390625 43.53125 10.953125 
Q 47.40625 15.53125 47.40625 23.390625 
Q 47.40625 31.296875 43.53125 35.828125 
Q 39.65625 40.375 33.015625 40.375 
M 52.59375 71.296875 
L 52.59375 62.3125 
Q 48.875 64.0625 45.09375 64.984375 
Q 41.3125 65.921875 37.59375 65.921875 
Q 27.828125 65.921875 22.671875 59.328125 
Q 17.53125 52.734375 16.796875 39.40625 
Q 19.671875 43.65625 24.015625 45.921875 
Q 28.375 48.1875 33.59375 48.1875 
Q 44.578125 48.1875 50.953125 41.515625 
Q 57.328125 34.859375 57.328125 23.390625 
Q 57.328125 12.15625 50.6875 5.359375 
Q 44.046875 -1.421875 33.015625 -1.421875 
Q 20.359375 -1.421875 13.671875 8.265625 
Q 6.984375 17.96875 6.984375 36.375 
Q 6.984375 53.65625 15.1875 63.9375 
Q 23.390625 74.21875 37.203125 74.21875 
Q 40.921875 74.21875 44.703125 73.484375 
Q 48.484375 72.75 52.59375 71.296875 
" id="DejaVuSans-36"/>
      </defs>
      <g transform="translate(184.1375 830.816875)scale(0.2 -0.2)">
       <use xlink:href="#DejaVuSans-31"/>
       <use x="63.623046875" xlink:href="#DejaVuSans-39"/>
       <use x="127.24609375" xlink:href="#DejaVuSans-36"/>
       <use x="190.869140625" xlink:href="#DejaVuSans-31"/>
      </g>
     </g>
    </g>
    <g id="xtick_2">
     <g id="line2d_7">
      <g>
       <use style="stroke:#000000;stroke-width:0.5;" x="469.476" xlink:href="#m8cd9082dd4" y="811.62"/>
      </g>
     </g>
     <g id="line2d_8">
      <g>
       <use style="stroke:#000000;stroke-width:0.5;" x="469.476" xlink:href="#mdaa6a69ac7" y="90.18"/>
      </g>
     </g>
     <g id="text_2">
      <!-- 1971 -->
      <defs>
       <path d="M 8.203125 72.90625 
L 55.078125 72.90625 
L 55.078125 68.703125 
L 28.609375 0 
L 18.3125 0 
L 43.21875 64.59375 
L 8.203125 64.59375 
z
" id="DejaVuSans-37"/>
      </defs>
      <g transform="translate(444.026 830.816875)scale(0.2 -0.2)">
       <use xlink:href="#DejaVuSans-31"/>
       <use x="63.623046875" xlink:href="#DejaVuSans-39"/>
       <use x="127.24609375" xlink:href="#DejaVuSans-37"/>
       <use x="190.869140625" xlink:href="#DejaVuSans-31"/>
      </g>
     </g>
    </g>
    <g id="xtick_3">
     <g id="line2d_9">
      <g>
       <use style="stroke:#000000;stroke-width:0.5;" x="729.3645" xlink:href="#m8cd9082dd4" y="811.62"/>
      </g>
     </g>
     <g id="line2d_10">
      <g>
       <use style="stroke:#000000;stroke-width:0.5;" x="729.3645" xlink:href="#mdaa6a69ac7" y="90.18"/>
      </g>
     </g>
     <g id="text_3">
      <!-- 1981 -->
      <defs>
       <path d="M 31.78125 34.625 
Q 24.75 34.625 20.71875 30.859375 
Q 16.703125 27.09375 16.703125 20.515625 
Q 16.703125 13.921875 20.71875 10.15625 
Q 24.75 6.390625 31.78125 6.390625 
Q 38.8125 6.390625 42.859375 10.171875 
Q 46.921875 13.96875 46.921875 20.515625 
Q 46.921875 27.09375 42.890625 30.859375 
Q 38.875 34.625 31.78125 34.625 
M 21.921875 38.8125 
Q 15.578125 40.375 12.03125 44.71875 
Q 8.5 49.078125 8.5 55.328125 
Q 8.5 64.0625 14.71875 69.140625 
Q 20.953125 74.21875 31.78125 74.21875 
Q 42.671875 74.21875 48.875 69.140625 
Q 55.078125 64.0625 55.078125 55.328125 
Q 55.078125 49.078125 51.53125 44.71875 
Q 48 40.375 41.703125 38.8125 
Q 48.828125 37.15625 52.796875 32.3125 
Q 56.78125 27.484375 56.78125 20.515625 
Q 56.78125 9.90625 50.3125 4.234375 
Q 43.84375 -1.421875 31.78125 -1.421875 
Q 19.734375 -1.421875 13.25 4.234375 
Q 6.78125 9.90625 6.78125 20.515625 
Q 6.78125 27.484375 10.78125 32.3125 
Q 14.796875 37.15625 21.921875 38.8125 
M 18.3125 54.390625 
Q 18.3125 48.734375 21.84375 45.5625 
Q 25.390625 42.390625 31.78125 42.390625 
Q 38.140625 42.390625 41.71875 45.5625 
Q 45.3125 48.734375 45.3125 54.390625 
Q 45.3125 60.0625 41.71875 63.234375 
Q 38.140625 66.40625 31.78125 66.40625 
Q 25.390625 66.40625 21.84375 63.234375 
Q 18.3125 60.0625 18.3125 54.390625 
" id="DejaVuSans-38"/>
      </defs>
      <g transform="translate(703.9145 830.816875)scale(0.2 -0.2)">
       <use xlink:href="#DejaVuSans-31"/>
       <use x="63.623046875" xlink:href="#DejaVuSans-39"/>
       <use x="127.24609375" xlink:href="#DejaVuSans-38"/>
       <use x="190.869140625" xlink:href="#DejaVuSans-31"/>
      </g>
     </g>
    </g>
    <g id="xtick_4">
     <g id="line2d_11">
      <g>
       <use style="stroke:#000000;stroke-width:0.5;" x="989.253" xlink:href="#m8cd9082dd4" y="811.62"/>
      </g>
     </g>
     <g id="line2d_12">
      <g>
       <use style="stroke:#000000;stroke-width:0.5;" x="989.253" xlink:href="#mdaa6a69ac7" y="90.18"/>
      </g>
     </g>
     <g id="text_4">
      <!-- 1991 -->
      <g transform="translate(963.803 830.816875)scale(0.2 -0.2)">
       <use xlink:href="#DejaVuSans-31"/>
       <use x="63.623046875" xlink:href="#DejaVuSans-39"/>
       <use x="127.24609375" xlink:href="#DejaVuSans-39"/>
       <use x="190.869140625" xlink:href="#DejaVuSans-31"/>
      </g>
     </g>
    </g>
    <g id="xtick_5">
     <g id="line2d_13">
      <g>
       <use style="stroke:#000000;stroke-width:0.5;" x="1249.1415" xlink:href="#m8cd9082dd4" y="811.62"/>
      </g>
     </g>
     <g id="line2d_14">
      <g>
       <use style="stroke:#000000;stroke-width:0.5;" x="1249.1415" xlink:href="#mdaa6a69ac7" y="90.18"/>
      </g>
     </g>
     <g id="text_5">
      <!-- 2001 -->
      <defs>
       <path d="M 31.78125 66.40625 
Q 24.171875 66.40625 20.328125 58.90625 
Q 16.5 51.421875 16.5 36.375 
Q 16.5 21.390625 20.328125 13.890625 
Q 24.171875 6.390625 31.78125 6.390625 
Q 39.453125 6.390625 43.28125 13.890625 
Q 47.125 21.390625 47.125 36.375 
Q 47.125 51.421875 43.28125 58.90625 
Q 39.453125 66.40625 31.78125 66.40625 
M 31.78125 74.21875 
Q 44.046875 74.21875 50.515625 64.515625 
Q 56.984375 54.828125 56.984375 36.375 
Q 56.984375 17.96875 50.515625 8.265625 
Q 44.046875 -1.421875 31.78125 -1.421875 
Q 19.53125 -1.421875 13.0625 8.265625 
Q 6.59375 17.96875 6.59375 36.375 
Q 6.59375 54.828125 13.0625 64.515625 
Q 19.53125 74.21875 31.78125 74.21875 
" id="DejaVuSans-30"/>
       <path d="M 19.1875 8.296875 
L 53.609375 8.296875 
L 53.609375 0 
L 7.328125 0 
L 7.328125 8.296875 
Q 12.9375 14.109375 22.625 23.890625 
Q 32.328125 33.6875 34.8125 36.53125 
Q 39.546875 41.84375 41.421875 45.53125 
Q 43.3125 49.21875 43.3125 52.78125 
Q 43.3125 58.59375 39.234375 62.25 
Q 35.15625 65.921875 28.609375 65.921875 
Q 23.96875 65.921875 18.8125 64.3125 
Q 13.671875 62.703125 7.8125 59.421875 
L 7.8125 69.390625 
Q 13.765625 71.78125 18.9375 73 
Q 24.125 74.21875 28.421875 74.21875 
Q 39.75 74.21875 46.484375 68.546875 
Q 53.21875 62.890625 53.21875 53.421875 
Q 53.21875 48.921875 51.53125 44.890625 
Q 49.859375 40.875 45.40625 35.40625 
Q 44.1875 33.984375 37.640625 27.21875 
Q 31.109375 20.453125 19.1875 8.296875 
" id="DejaVuSans-32"/>
      </defs>
      <g transform="translate(1223.6915 830.816875)scale(0.2 -0.2)">
       <use xlink:href="#DejaVuSans-32"/>
       <use x="63.623046875" xlink:href="#DejaVuSans-30"/>
       <use x="127.24609375" xlink:href="#DejaVuSans-30"/>
       <use x="190.869140625" xlink:href="#DejaVuSans-31"/>
      </g>
     </g>
    </g>
    <g id="xtick_6">
     <g id="line2d_15">
      <g>
       <use style="stroke:#000000;stroke-width:0.5;" x="1509.03" xlink:href="#m8cd9082dd4" y="811.62"/>
      </g>
     </g>
     <g id="line2d_16">
      <g>
       <use style="stroke:#000000;stroke-width:0.5;" x="1509.03" xlink:href="#mdaa6a69ac7" y="90.18"/>
      </g>
     </g>
     <g id="text_6">
      <!-- 2011 -->
      <g transform="translate(1483.58 830.816875)scale(0.2 -0.2)">
       <use xlink:href="#DejaVuSans-32"/>
       <use x="63.623046875" xlink:href="#DejaVuSans-30"/>
       <use x="127.24609375" xlink:href="#DejaVuSans-31"/>
       <use x="190.869140625" xlink:href="#DejaVuSans-31"/>
      </g>
     </g>
    </g>
    <g id="text_7">
     <!-- Year -->
     <defs>
      <path d="M 32.90625 24.609375 
Q 27.4375 24.609375 24.671875 22.75 
Q 21.921875 20.90625 21.921875 17.28125 
Q 21.921875 13.96875 24.140625 12.078125 
Q 26.375 10.203125 30.328125 10.203125 
Q 35.25 10.203125 38.625 13.734375 
Q 42 17.28125 42 22.609375 
L 42 24.609375 
z
M 59.625 31.203125 
L 59.625 0 
L 42 0 
L 42 8.109375 
Q 38.484375 3.125 34.078125 0.84375 
Q 29.6875 -1.421875 23.390625 -1.421875 
Q 14.890625 -1.421875 9.59375 3.53125 
Q 4.296875 8.5 4.296875 16.40625 
Q 4.296875 26.03125 10.90625 30.515625 
Q 17.53125 35.015625 31.6875 35.015625 
L 42 35.015625 
L 42 36.375 
Q 42 40.53125 38.71875 42.453125 
Q 35.453125 44.390625 28.515625 44.390625 
Q 22.90625 44.390625 18.0625 43.265625 
Q 13.234375 42.140625 9.078125 39.890625 
L 9.078125 53.21875 
Q 14.703125 54.59375 20.359375 55.296875 
Q 26.03125 56 31.6875 56 
Q 46.484375 56 53.046875 50.171875 
Q 59.625 44.34375 59.625 31.203125 
" id="DejaVuSans-Bold-61"/>
      <path d="M 49.03125 39.796875 
Q 46.734375 40.875 44.453125 41.375 
Q 42.1875 41.890625 39.890625 41.890625 
Q 33.15625 41.890625 29.515625 37.5625 
Q 25.875 33.25 25.875 25.203125 
L 25.875 0 
L 8.40625 0 
L 8.40625 54.6875 
L 25.875 54.6875 
L 25.875 45.703125 
Q 29.25 51.078125 33.609375 53.53125 
Q 37.984375 56 44.09375 56 
Q 44.96875 56 45.984375 55.921875 
Q 47.015625 55.859375 48.96875 55.609375 
z
" id="DejaVuSans-Bold-72"/>
      <path d="M 62.984375 27.484375 
L 62.984375 22.515625 
L 22.125 22.515625 
Q 22.75 16.359375 26.5625 13.28125 
Q 30.375 10.203125 37.203125 10.203125 
Q 42.71875 10.203125 48.5 11.84375 
Q 54.296875 13.484375 60.40625 16.796875 
L 60.40625 3.328125 
Q 54.203125 0.984375 48 -0.21875 
Q 41.796875 -1.421875 35.59375 -1.421875 
Q 20.75 -1.421875 12.515625 6.125 
Q 4.296875 13.671875 4.296875 27.296875 
Q 4.296875 40.671875 12.375 48.328125 
Q 20.453125 56 34.625 56 
Q 47.515625 56 55.25 48.234375 
Q 62.984375 40.484375 62.984375 27.484375 
M 45.015625 33.296875 
Q 45.015625 38.28125 42.109375 41.328125 
Q 39.203125 44.390625 34.515625 44.390625 
Q 29.4375 44.390625 26.265625 41.53125 
Q 23.09375 38.671875 22.3125 33.296875 
z
" id="DejaVuSans-Bold-65"/>
      <path d="M -0.984375 72.90625 
L 19.578125 72.90625 
L 36.1875 46.921875 
L 52.78125 72.90625 
L 73.390625 72.90625 
L 45.609375 30.71875 
L 45.609375 0 
L 26.8125 0 
L 26.8125 30.71875 
z
" id="DejaVuSans-Bold-59"/>
     </defs>
     <g transform="translate(833.6196875 855.173125)scale(0.2 -0.2)">
      <use xlink:href="#DejaVuSans-Bold-59"/>
      <use x="72.271484375" xlink:href="#DejaVuSans-Bold-65"/>
      <use x="140.09375" xlink:href="#DejaVuSans-Bold-61"/>
      <use x="207.57421875" xlink:href="#DejaVuSans-Bold-72"/>
     </g>
    </g>
   </g>
   <g id="matplotlib.axis_2">
    <g id="ytick_1">
     <g id="line2d_17">
      <defs>
       <path d="M 0 0 
L 4 0 
" id="m493cf86779" style="stroke:#000000;stroke-width:0.5;"/>
      </defs>
      <g>
       <use style="stroke:#000000;stroke-width:0.5;" x="209.5875" xlink:href="#m493cf86779" y="811.62"/>
      </g>
     </g>
     <g id="line2d_18">
      <defs>
       <path d="M 0 0 
L -4 0 
" id="m7aa1ad6b3b" style="stroke:#000000;stroke-width:0.5;"/>
      </defs>
      <g>
       <use style="stroke:#000000;stroke-width:0.5;" x="1509.03" xlink:href="#m7aa1ad6b3b" y="811.62"/>
      </g>
     </g>
     <g id="text_8">
      <!-- 0.00 -->
      <defs>
       <path d="M 10.6875 12.40625 
L 21 12.40625 
L 21 0 
L 10.6875 0 
z
" id="DejaVuSans-2e"/>
      </defs>
      <g transform="translate(161.05625 817.13875)scale(0.2 -0.2)">
       <use xlink:href="#DejaVuSans-30"/>
       <use x="63.623046875" xlink:href="#DejaVuSans-2e"/>
       <use x="95.41015625" xlink:href="#DejaVuSans-30"/>
       <use x="159.033203125" xlink:href="#DejaVuSans-30"/>
      </g>
     </g>
    </g>
    <g id="ytick_2">
     <g id="line2d_19">
      <g>
       <use style="stroke:#000000;stroke-width:0.5;" x="209.5875" xlink:href="#m493cf86779" y="731.46"/>
      </g>
     </g>
     <g id="line2d_20">
      <g>
       <use style="stroke:#000000;stroke-width:0.5;" x="1509.03" xlink:href="#m7aa1ad6b3b" y="731.46"/>
      </g>
     </g>
     <g id="text_9">
      <!-- 0.01 -->
      <g transform="translate(161.05625 736.97875)scale(0.2 -0.2)">
       <use xlink:href="#DejaVuSans-30"/>
       <use x="63.623046875" xlink:href="#DejaVuSans-2e"/>
       <use x="95.41015625" xlink:href="#DejaVuSans-30"/>
       <use x="159.033203125" xlink:href="#DejaVuSans-31"/>
      </g>
     </g>
    </g>
    <g id="ytick_3">
     <g id="line2d_21">
      <g>
       <use style="stroke:#000000;stroke-width:0.5;" x="209.5875" xlink:href="#m493cf86779" y="651.3"/>
      </g>
     </g>
     <g id="line2d_22">
      <g>
       <use style="stroke:#000000;stroke-width:0.5;" x="1509.03" xlink:href="#m7aa1ad6b3b" y="651.3"/>
      </g>
     </g>
     <g id="text_10">
      <!-- 0.02 -->
      <g transform="translate(161.05625 656.81875)scale(0.2 -0.2)">
       <use xlink:href="#DejaVuSans-30"/>
       <use x="63.623046875" xlink:href="#DejaVuSans-2e"/>
       <use x="95.41015625" xlink:href="#DejaVuSans-30"/>
       <use x="159.033203125" xlink:href="#DejaVuSans-32"/>
      </g>
     </g>
    </g>
    <g id="ytick_4">
     <g id="line2d_23">
      <g>
       <use style="stroke:#000000;stroke-width:0.5;" x="209.5875" xlink:href="#m493cf86779" y="571.14"/>
      </g>
     </g>
     <g id="line2d_24">
      <g>
       <use style="stroke:#000000;stroke-width:0.5;" x="1509.03" xlink:href="#m7aa1ad6b3b" y="571.14"/>
      </g>
     </g>
     <g id="text_11">
      <!-- 0.03 -->
      <defs>
       <path d="M 40.578125 39.3125 
Q 47.65625 37.796875 51.625 33 
Q 55.609375 28.21875 55.609375 21.1875 
Q 55.609375 10.40625 48.1875 4.484375 
Q 40.765625 -1.421875 27.09375 -1.421875 
Q 22.515625 -1.421875 17.65625 -0.515625 
Q 12.796875 0.390625 7.625 2.203125 
L 7.625 11.71875 
Q 11.71875 9.328125 16.59375 8.109375 
Q 21.484375 6.890625 26.8125 6.890625 
Q 36.078125 6.890625 40.9375 10.546875 
Q 45.796875 14.203125 45.796875 21.1875 
Q 45.796875 27.640625 41.28125 31.265625 
Q 36.765625 34.90625 28.71875 34.90625 
L 20.21875 34.90625 
L 20.21875 43.015625 
L 29.109375 43.015625 
Q 36.375 43.015625 40.234375 45.921875 
Q 44.09375 48.828125 44.09375 54.296875 
Q 44.09375 59.90625 40.109375 62.90625 
Q 36.140625 65.921875 28.71875 65.921875 
Q 24.65625 65.921875 20.015625 65.03125 
Q 15.375 64.15625 9.8125 62.3125 
L 9.8125 71.09375 
Q 15.4375 72.65625 20.34375 73.4375 
Q 25.25 74.21875 29.59375 74.21875 
Q 40.828125 74.21875 47.359375 69.109375 
Q 53.90625 64.015625 53.90625 55.328125 
Q 53.90625 49.265625 50.4375 45.09375 
Q 46.96875 40.921875 40.578125 39.3125 
" id="DejaVuSans-33"/>
      </defs>
      <g transform="translate(161.05625 576.65875)scale(0.2 -0.2)">
       <use xlink:href="#DejaVuSans-30"/>
       <use x="63.623046875" xlink:href="#DejaVuSans-2e"/>
       <use x="95.41015625" xlink:href="#DejaVuSans-30"/>
       <use x="159.033203125" xlink:href="#DejaVuSans-33"/>
      </g>
     </g>
    </g>
    <g id="ytick_5">
     <g id="line2d_25">
      <g>
       <use style="stroke:#000000;stroke-width:0.5;" x="209.5875" xlink:href="#m493cf86779" y="490.98"/>
      </g>
     </g>
     <g id="line2d_26">
      <g>
       <use style="stroke:#000000;stroke-width:0.5;" x="1509.03" xlink:href="#m7aa1ad6b3b" y="490.98"/>
      </g>
     </g>
     <g id="text_12">
      <!-- 0.04 -->
      <defs>
       <path d="M 37.796875 64.3125 
L 12.890625 25.390625 
L 37.796875 25.390625 
z
M 35.203125 72.90625 
L 47.609375 72.90625 
L 47.609375 25.390625 
L 58.015625 25.390625 
L 58.015625 17.1875 
L 47.609375 17.1875 
L 47.609375 0 
L 37.796875 0 
L 37.796875 17.1875 
L 4.890625 17.1875 
L 4.890625 26.703125 
z
" id="DejaVuSans-34"/>
      </defs>
      <g transform="translate(161.05625 496.49875)scale(0.2 -0.2)">
       <use xlink:href="#DejaVuSans-30"/>
       <use x="63.623046875" xlink:href="#DejaVuSans-2e"/>
       <use x="95.41015625" xlink:href="#DejaVuSans-30"/>
       <use x="159.033203125" xlink:href="#DejaVuSans-34"/>
      </g>
     </g>
    </g>
    <g id="ytick_6">
     <g id="line2d_27">
      <g>
       <use style="stroke:#000000;stroke-width:0.5;" x="209.5875" xlink:href="#m493cf86779" y="410.82"/>
      </g>
     </g>
     <g id="line2d_28">
      <g>
       <use style="stroke:#000000;stroke-width:0.5;" x="1509.03" xlink:href="#m7aa1ad6b3b" y="410.82"/>
      </g>
     </g>
     <g id="text_13">
      <!-- 0.05 -->
      <defs>
       <path d="M 10.796875 72.90625 
L 49.515625 72.90625 
L 49.515625 64.59375 
L 19.828125 64.59375 
L 19.828125 46.734375 
Q 21.96875 47.46875 24.109375 47.828125 
Q 26.265625 48.1875 28.421875 48.1875 
Q 40.625 48.1875 47.75 41.5 
Q 54.890625 34.8125 54.890625 23.390625 
Q 54.890625 11.625 47.5625 5.09375 
Q 40.234375 -1.421875 26.90625 -1.421875 
Q 22.3125 -1.421875 17.546875 -0.640625 
Q 12.796875 0.140625 7.71875 1.703125 
L 7.71875 11.625 
Q 12.109375 9.234375 16.796875 8.0625 
Q 21.484375 6.890625 26.703125 6.890625 
Q 35.15625 6.890625 40.078125 11.328125 
Q 45.015625 15.765625 45.015625 23.390625 
Q 45.015625 31 40.078125 35.4375 
Q 35.15625 39.890625 26.703125 39.890625 
Q 22.75 39.890625 18.8125 39.015625 
Q 14.890625 38.140625 10.796875 36.28125 
z
" id="DejaVuSans-35"/>
      </defs>
      <g transform="translate(161.05625 416.33875)scale(0.2 -0.2)">
       <use xlink:href="#DejaVuSans-30"/>
       <use x="63.623046875" xlink:href="#DejaVuSans-2e"/>
       <use x="95.41015625" xlink:href="#DejaVuSans-30"/>
       <use x="159.033203125" xlink:href="#DejaVuSans-35"/>
      </g>
     </g>
    </g>
    <g id="ytick_7">
     <g id="line2d_29">
      <g>
       <use style="stroke:#000000;stroke-width:0.5;" x="209.5875" xlink:href="#m493cf86779" y="330.66"/>
      </g>
     </g>
     <g id="line2d_30">
      <g>
       <use style="stroke:#000000;stroke-width:0.5;" x="1509.03" xlink:href="#m7aa1ad6b3b" y="330.66"/>
      </g>
     </g>
     <g id="text_14">
      <!-- 0.06 -->
      <g transform="translate(161.05625 336.17875)scale(0.2 -0.2)">
       <use xlink:href="#DejaVuSans-30"/>
       <use x="63.623046875" xlink:href="#DejaVuSans-2e"/>
       <use x="95.41015625" xlink:href="#DejaVuSans-30"/>
       <use x="159.033203125" xlink:href="#DejaVuSans-36"/>
      </g>
     </g>
    </g>
    <g id="ytick_8">
     <g id="line2d_31">
      <g>
       <use style="stroke:#000000;stroke-width:0.5;" x="209.5875" xlink:href="#m493cf86779" y="250.5"/>
      </g>
     </g>
     <g id="line2d_32">
      <g>
       <use style="stroke:#000000;stroke-width:0.5;" x="1509.03" xlink:href="#m7aa1ad6b3b" y="250.5"/>
      </g>
     </g>
     <g id="text_15">
      <!-- 0.07 -->
      <g transform="translate(161.05625 256.01875)scale(0.2 -0.2)">
       <use xlink:href="#DejaVuSans-30"/>
       <use x="63.623046875" xlink:href="#DejaVuSans-2e"/>
       <use x="95.41015625" xlink:href="#DejaVuSans-30"/>
       <use x="159.033203125" xlink:href="#DejaVuSans-37"/>
      </g>
     </g>
    </g>
    <g id="ytick_9">
     <g id="line2d_33">
      <g>
       <use style="stroke:#000000;stroke-width:0.5;" x="209.5875" xlink:href="#m493cf86779" y="170.34"/>
      </g>
     </g>
     <g id="line2d_34">
      <g>
       <use style="stroke:#000000;stroke-width:0.5;" x="1509.03" xlink:href="#m7aa1ad6b3b" y="170.34"/>
      </g>
     </g>
     <g id="text_16">
      <!-- 0.08 -->
      <g transform="translate(161.05625 175.85875)scale(0.2 -0.2)">
       <use xlink:href="#DejaVuSans-30"/>
       <use x="63.623046875" xlink:href="#DejaVuSans-2e"/>
       <use x="95.41015625" xlink:href="#DejaVuSans-30"/>
       <use x="159.033203125" xlink:href="#DejaVuSans-38"/>
      </g>
     </g>
    </g>
    <g id="ytick_10">
     <g id="line2d_35">
      <g>
       <use style="stroke:#000000;stroke-width:0.5;" x="209.5875" xlink:href="#m493cf86779" y="90.18"/>
      </g>
     </g>
     <g id="line2d_36">
      <g>
       <use style="stroke:#000000;stroke-width:0.5;" x="1509.03" xlink:href="#m7aa1ad6b3b" y="90.18"/>
      </g>
     </g>
     <g id="text_17">
      <!-- 0.09 -->
      <g transform="translate(161.05625 95.69875)scale(0.2 -0.2)">
       <use xlink:href="#DejaVuSans-30"/>
       <use x="63.623046875" xlink:href="#DejaVuSans-2e"/>
       <use x="95.41015625" xlink:href="#DejaVuSans-30"/>
       <use x="159.033203125" xlink:href="#DejaVuSans-39"/>
      </g>
     </g>
    </g>
    <g id="text_18">
     <!-- Mass (Mt) -->
     <defs>
      <path d="M 51.125 52.984375 
L 51.125 39.703125 
Q 45.515625 42.046875 40.28125 43.21875 
Q 35.0625 44.390625 30.421875 44.390625 
Q 25.4375 44.390625 23.015625 43.140625 
Q 20.609375 41.890625 20.609375 39.3125 
Q 20.609375 37.203125 22.4375 36.078125 
Q 24.265625 34.96875 29 34.421875 
L 32.078125 33.984375 
Q 45.515625 32.28125 50.140625 28.375 
Q 54.78125 24.46875 54.78125 16.109375 
Q 54.78125 7.375 48.328125 2.96875 
Q 41.890625 -1.421875 29.109375 -1.421875 
Q 23.6875 -1.421875 17.890625 -0.5625 
Q 12.109375 0.296875 6 2 
L 6 15.28125 
Q 11.234375 12.75 16.71875 11.46875 
Q 22.21875 10.203125 27.875 10.203125 
Q 33.015625 10.203125 35.59375 11.609375 
Q 38.1875 13.03125 38.1875 15.828125 
Q 38.1875 18.171875 36.40625 19.3125 
Q 34.625 20.453125 29.296875 21.09375 
L 26.21875 21.484375 
Q 14.546875 22.953125 9.859375 26.90625 
Q 5.171875 30.859375 5.171875 38.921875 
Q 5.171875 47.609375 11.125 51.796875 
Q 17.09375 56 29.390625 56 
Q 34.234375 56 39.546875 55.265625 
Q 44.875 54.546875 51.125 52.984375 
" id="DejaVuSans-Bold-73"/>
      <path d="M 8.015625 -13.1875 
Q 14.265625 -1.5625 17.390625 9.515625 
Q 20.515625 20.609375 20.515625 31.390625 
Q 20.515625 42.1875 17.390625 53.25 
Q 14.265625 64.3125 8.015625 75.875 
L 22.515625 75.875 
Q 29.9375 63.921875 33.515625 52.953125 
Q 37.109375 42 37.109375 31.296875 
Q 37.109375 20.609375 33.546875 9.734375 
Q 29.984375 -1.125 22.515625 -13.1875 
z
" id="DejaVuSans-Bold-29"/>
      <path d="M 37.703125 -13.1875 
L 23.1875 -13.1875 
Q 15.71875 -1.125 12.15625 9.734375 
Q 8.59375 20.609375 8.59375 31.296875 
Q 8.59375 42 12.171875 52.953125 
Q 15.765625 63.921875 23.1875 75.875 
L 37.703125 75.875 
Q 31.453125 64.3125 28.328125 53.25 
Q 25.203125 42.1875 25.203125 31.390625 
Q 25.203125 20.609375 28.296875 9.515625 
Q 31.390625 -1.5625 37.703125 -13.1875 
" id="DejaVuSans-Bold-28"/>
      <path d="M 27.484375 70.21875 
L 27.484375 54.6875 
L 45.515625 54.6875 
L 45.515625 42.1875 
L 27.484375 42.1875 
L 27.484375 19 
Q 27.484375 15.1875 29 13.84375 
Q 30.515625 12.5 35.015625 12.5 
L 44 12.5 
L 44 0 
L 29 0 
Q 18.65625 0 14.328125 4.3125 
Q 10.015625 8.640625 10.015625 19 
L 10.015625 42.1875 
L 1.3125 42.1875 
L 1.3125 54.6875 
L 10.015625 54.6875 
L 10.015625 70.21875 
z
" id="DejaVuSans-Bold-74"/>
      <path id="DejaVuSans-Bold-20"/>
      <path d="M 9.1875 72.90625 
L 33.109375 72.90625 
L 49.703125 33.890625 
L 66.40625 72.90625 
L 90.28125 72.90625 
L 90.28125 0 
L 72.515625 0 
L 72.515625 53.328125 
L 55.71875 14.015625 
L 43.796875 14.015625 
L 27 53.328125 
L 27 0 
L 9.1875 0 
z
" id="DejaVuSans-Bold-4d"/>
     </defs>
     <g transform="translate(151.896875 506.85625)rotate(-90.0)scale(0.2 -0.2)">
      <use xlink:href="#DejaVuSans-Bold-4d"/>
      <use x="99.51171875" xlink:href="#DejaVuSans-Bold-61"/>
      <use x="166.9921875" xlink:href="#DejaVuSans-Bold-73"/>
      <use x="226.513671875" xlink:href="#DejaVuSans-Bold-73"/>
      <use x="286.03515625" xlink:href="#DejaVuSans-Bold-20"/>
      <use x="320.849609375" xlink:href="#DejaVuSans-Bold-28"/>
      <use x="366.552734375" xlink:href="#DejaVuSans-Bold-4d"/>
      <use x="466.064453125" xlink:href="#DejaVuSans-Bold-74"/>
      <use x="513.8671875" xlink:href="#DejaVuSans-Bold-29"/>
     </g>
    </g>
   </g>
   <g id="text_19">
    <!-- RuBisCO mass -->
    <defs>
     <path d="M 35.890625 40.578125 
Q 41.796875 40.578125 44.359375 42.765625 
Q 46.921875 44.96875 46.921875 50 
Q 46.921875 54.984375 44.359375 57.125 
Q 41.796875 59.28125 35.890625 59.28125 
L 27.984375 59.28125 
L 27.984375 40.578125 
z
M 27.984375 27.59375 
L 27.984375 0 
L 9.1875 0 
L 9.1875 72.90625 
L 37.890625 72.90625 
Q 52.296875 72.90625 59 68.0625 
Q 65.71875 63.234375 65.71875 52.78125 
Q 65.71875 45.5625 62.21875 40.921875 
Q 58.734375 36.28125 51.703125 34.078125 
Q 55.5625 33.203125 58.609375 30.09375 
Q 61.671875 27 64.796875 20.703125 
L 75 0 
L 54.984375 0 
L 46.09375 18.109375 
Q 43.40625 23.578125 40.640625 25.578125 
Q 37.890625 27.59375 33.296875 27.59375 
z
" id="DejaVuSans-Bold-52"/>
     <path d="M 7.8125 21.296875 
L 7.8125 54.6875 
L 25.390625 54.6875 
L 25.390625 49.21875 
Q 25.390625 44.78125 25.34375 38.0625 
Q 25.296875 31.34375 25.296875 29.109375 
Q 25.296875 22.515625 25.640625 19.609375 
Q 25.984375 16.703125 26.8125 15.375 
Q 27.875 13.671875 29.609375 12.734375 
Q 31.34375 11.8125 33.59375 11.8125 
Q 39.0625 11.8125 42.1875 16.015625 
Q 45.3125 20.21875 45.3125 27.6875 
L 45.3125 54.6875 
L 62.796875 54.6875 
L 62.796875 0 
L 45.3125 0 
L 45.3125 7.90625 
Q 41.359375 3.125 36.9375 0.84375 
Q 32.515625 -1.421875 27.203125 -1.421875 
Q 17.71875 -1.421875 12.765625 4.390625 
Q 7.8125 10.203125 7.8125 21.296875 
" id="DejaVuSans-Bold-75"/>
     <path d="M 8.40625 54.6875 
L 25.875 54.6875 
L 25.875 0 
L 8.40625 0 
z
M 8.40625 75.984375 
L 25.875 75.984375 
L 25.875 61.71875 
L 8.40625 61.71875 
z
" id="DejaVuSans-Bold-69"/>
     <path d="M 38.375 44.671875 
Q 42.828125 44.671875 45.109375 46.625 
Q 47.40625 48.578125 47.40625 52.390625 
Q 47.40625 56.15625 45.109375 58.125 
Q 42.828125 60.109375 38.375 60.109375 
L 27.984375 60.109375 
L 27.984375 44.671875 
z
M 39.015625 12.796875 
Q 44.671875 12.796875 47.53125 15.1875 
Q 50.390625 17.578125 50.390625 22.40625 
Q 50.390625 27.15625 47.5625 29.515625 
Q 44.734375 31.890625 39.015625 31.890625 
L 27.984375 31.890625 
L 27.984375 12.796875 
z
M 56.5 39.015625 
Q 62.546875 37.25 65.859375 32.515625 
Q 69.1875 27.78125 69.1875 20.90625 
Q 69.1875 10.359375 62.0625 5.171875 
Q 54.9375 0 40.375 0 
L 9.1875 0 
L 9.1875 72.90625 
L 37.40625 72.90625 
Q 52.59375 72.90625 59.40625 68.3125 
Q 66.21875 63.71875 66.21875 53.609375 
Q 66.21875 48.296875 63.71875 44.5625 
Q 61.234375 40.828125 56.5 39.015625 
" id="DejaVuSans-Bold-42"/>
     <path d="M 67 4 
Q 61.8125 1.3125 56.203125 -0.046875 
Q 50.59375 -1.421875 44.484375 -1.421875 
Q 26.265625 -1.421875 15.625 8.765625 
Q 4.984375 18.953125 4.984375 36.375 
Q 4.984375 53.859375 15.625 64.03125 
Q 26.265625 74.21875 44.484375 74.21875 
Q 50.59375 74.21875 56.203125 72.84375 
Q 61.8125 71.484375 67 68.796875 
L 67 53.71875 
Q 61.765625 57.28125 56.6875 58.9375 
Q 51.609375 60.59375 46 60.59375 
Q 35.9375 60.59375 30.171875 54.140625 
Q 24.421875 47.703125 24.421875 36.375 
Q 24.421875 25.09375 30.171875 18.640625 
Q 35.9375 12.203125 46 12.203125 
Q 51.609375 12.203125 56.6875 13.859375 
Q 61.765625 15.53125 67 19.09375 
z
" id="DejaVuSans-Bold-43"/>
     <path d="M 59.078125 45.609375 
Q 62.40625 50.6875 66.96875 53.34375 
Q 71.53125 56 77 56 
Q 86.421875 56 91.359375 50.1875 
Q 96.296875 44.390625 96.296875 33.296875 
L 96.296875 0 
L 78.71875 0 
L 78.71875 28.515625 
Q 78.765625 29.15625 78.78125 29.828125 
Q 78.8125 30.515625 78.8125 31.78125 
Q 78.8125 37.59375 77.09375 40.203125 
Q 75.390625 42.828125 71.578125 42.828125 
Q 66.609375 42.828125 63.890625 38.71875 
Q 61.1875 34.625 61.078125 26.859375 
L 61.078125 0 
L 43.5 0 
L 43.5 28.515625 
Q 43.5 37.59375 41.9375 40.203125 
Q 40.375 42.828125 36.375 42.828125 
Q 31.34375 42.828125 28.609375 38.703125 
Q 25.875 34.578125 25.875 26.90625 
L 25.875 0 
L 8.296875 0 
L 8.296875 54.6875 
L 25.875 54.6875 
L 25.875 46.6875 
Q 29.109375 51.3125 33.28125 53.65625 
Q 37.453125 56 42.484375 56 
Q 48.140625 56 52.484375 53.265625 
Q 56.84375 50.53125 59.078125 45.609375 
" id="DejaVuSans-Bold-6d"/>
     <path d="M 42.484375 60.59375 
Q 33.890625 60.59375 29.15625 54.25 
Q 24.421875 47.90625 24.421875 36.375 
Q 24.421875 24.90625 29.15625 18.546875 
Q 33.890625 12.203125 42.484375 12.203125 
Q 51.125 12.203125 55.859375 18.546875 
Q 60.59375 24.90625 60.59375 36.375 
Q 60.59375 47.90625 55.859375 54.25 
Q 51.125 60.59375 42.484375 60.59375 
M 42.484375 74.21875 
Q 60.0625 74.21875 70.015625 64.15625 
Q 79.984375 54.109375 79.984375 36.375 
Q 79.984375 18.703125 70.015625 8.640625 
Q 60.0625 -1.421875 42.484375 -1.421875 
Q 24.953125 -1.421875 14.96875 8.640625 
Q 4.984375 18.703125 4.984375 36.375 
Q 4.984375 54.109375 14.96875 64.15625 
Q 24.953125 74.21875 42.484375 74.21875 
" id="DejaVuSans-Bold-4f"/>
    </defs>
    <g transform="translate(469.476 194.388)scale(0.12 -0.12)">
     <use xlink:href="#DejaVuSans-Bold-52"/>
     <use x="77.001953125" xlink:href="#DejaVuSans-Bold-75"/>
     <use x="148.193359375" xlink:href="#DejaVuSans-Bold-42"/>
     <use x="224.4140625" xlink:href="#DejaVuSans-Bold-69"/>
     <use x="258.69140625" xlink:href="#DejaVuSans-Bold-73"/>
     <use x="318.212890625" xlink:href="#DejaVuSans-Bold-43"/>
     <use x="391.6015625" xlink:href="#DejaVuSans-Bold-4f"/>
     <use x="476.611328125" xlink:href="#DejaVuSans-Bold-20"/>
     <use x="511.42578125" xlink:href="#DejaVuSans-Bold-6d"/>
     <use x="615.625" xlink:href="#DejaVuSans-Bold-61"/>
     <use x="683.10546875" xlink:href="#DejaVuSans-Bold-73"/>
     <use x="742.626953125" xlink:href="#DejaVuSans-Bold-73"/>
    </g>
   </g>
   <g id="legend_1">
    <g id="patch_7">
     <path d="M 216.7875 186.246 
L 384.80175 186.246 
L 384.80175 97.38 
L 216.7875 97.38 
z
" style="fill:#ffffff;stroke:#000000;stroke-linejoin:miter;"/>
    </g>
    <g id="patch_8">
     <path d="M 222.5475 114.08175 
L 251.3475 114.08175 
L 251.3475 104.00175 
L 222.5475 104.00175 
z
" style="fill:#440154;stroke:#000000;stroke-linejoin:miter;"/>
    </g>
    <g id="text_20">
     <!-- Wild Megafauna -->
     <defs>
      <path d="M 9.8125 72.90625 
L 24.515625 72.90625 
L 43.109375 23.296875 
L 61.8125 72.90625 
L 76.515625 72.90625 
L 76.515625 0 
L 66.890625 0 
L 66.890625 64.015625 
L 48.09375 14.015625 
L 38.1875 14.015625 
L 19.390625 64.015625 
L 19.390625 0 
L 9.8125 0 
z
" id="DejaVuSans-4d"/>
      <path d="M 54.890625 33.015625 
L 54.890625 0 
L 45.90625 0 
L 45.90625 32.71875 
Q 45.90625 40.484375 42.875 44.328125 
Q 39.84375 48.1875 33.796875 48.1875 
Q 26.515625 48.1875 22.3125 43.546875 
Q 18.109375 38.921875 18.109375 30.90625 
L 18.109375 0 
L 9.078125 0 
L 9.078125 54.6875 
L 18.109375 54.6875 
L 18.109375 46.1875 
Q 21.34375 51.125 25.703125 53.5625 
Q 30.078125 56 35.796875 56 
Q 45.21875 56 50.046875 50.171875 
Q 54.890625 44.34375 54.890625 33.015625 
" id="DejaVuSans-6e"/>
      <path d="M 9.421875 75.984375 
L 18.40625 75.984375 
L 18.40625 0 
L 9.421875 0 
z
" id="DejaVuSans-6c"/>
      <path d="M 8.5 21.578125 
L 8.5 54.6875 
L 17.484375 54.6875 
L 17.484375 21.921875 
Q 17.484375 14.15625 20.5 10.265625 
Q 23.53125 6.390625 29.59375 6.390625 
Q 36.859375 6.390625 41.078125 11.03125 
Q 45.3125 15.671875 45.3125 23.6875 
L 45.3125 54.6875 
L 54.296875 54.6875 
L 54.296875 0 
L 45.3125 0 
L 45.3125 8.40625 
Q 42.046875 3.421875 37.71875 1 
Q 33.40625 -1.421875 27.6875 -1.421875 
Q 18.265625 -1.421875 13.375 4.4375 
Q 8.5 10.296875 8.5 21.578125 
M 31.109375 56 
z
" id="DejaVuSans-75"/>
      <path id="DejaVuSans-20"/>
      <path d="M 9.421875 54.6875 
L 18.40625 54.6875 
L 18.40625 0 
L 9.421875 0 
z
M 9.421875 75.984375 
L 18.40625 75.984375 
L 18.40625 64.59375 
L 9.421875 64.59375 
z
" id="DejaVuSans-69"/>
      <path d="M 37.109375 75.984375 
L 37.109375 68.5 
L 28.515625 68.5 
Q 23.6875 68.5 21.796875 66.546875 
Q 19.921875 64.59375 19.921875 59.515625 
L 19.921875 54.6875 
L 34.71875 54.6875 
L 34.71875 47.703125 
L 19.921875 47.703125 
L 19.921875 0 
L 10.890625 0 
L 10.890625 47.703125 
L 2.296875 47.703125 
L 2.296875 54.6875 
L 10.890625 54.6875 
L 10.890625 58.5 
Q 10.890625 67.625 15.140625 71.796875 
Q 19.390625 75.984375 28.609375 75.984375 
z
" id="DejaVuSans-66"/>
      <path d="M 45.40625 27.984375 
Q 45.40625 37.75 41.375 43.109375 
Q 37.359375 48.484375 30.078125 48.484375 
Q 22.859375 48.484375 18.828125 43.109375 
Q 14.796875 37.75 14.796875 27.984375 
Q 14.796875 18.265625 18.828125 12.890625 
Q 22.859375 7.515625 30.078125 7.515625 
Q 37.359375 7.515625 41.375 12.890625 
Q 45.40625 18.265625 45.40625 27.984375 
M 54.390625 6.78125 
Q 54.390625 -7.171875 48.1875 -13.984375 
Q 42 -20.796875 29.203125 -20.796875 
Q 24.46875 -20.796875 20.265625 -20.09375 
Q 16.0625 -19.390625 12.109375 -17.921875 
L 12.109375 -9.1875 
Q 16.0625 -11.328125 19.921875 -12.34375 
Q 23.78125 -13.375 27.78125 -13.375 
Q 36.625 -13.375 41.015625 -8.765625 
Q 45.40625 -4.15625 45.40625 5.171875 
L 45.40625 9.625 
Q 42.625 4.78125 38.28125 2.390625 
Q 33.9375 0 27.875 0 
Q 17.828125 0 11.671875 7.65625 
Q 5.515625 15.328125 5.515625 27.984375 
Q 5.515625 40.671875 11.671875 48.328125 
Q 17.828125 56 27.875 56 
Q 33.9375 56 38.28125 53.609375 
Q 42.625 51.21875 45.40625 46.390625 
L 45.40625 54.6875 
L 54.390625 54.6875 
z
" id="DejaVuSans-67"/>
      <path d="M 45.40625 46.390625 
L 45.40625 75.984375 
L 54.390625 75.984375 
L 54.390625 0 
L 45.40625 0 
L 45.40625 8.203125 
Q 42.578125 3.328125 38.25 0.953125 
Q 33.9375 -1.421875 27.875 -1.421875 
Q 17.96875 -1.421875 11.734375 6.484375 
Q 5.515625 14.40625 5.515625 27.296875 
Q 5.515625 40.1875 11.734375 48.09375 
Q 17.96875 56 27.875 56 
Q 33.9375 56 38.25 53.625 
Q 42.578125 51.265625 45.40625 46.390625 
M 14.796875 27.296875 
Q 14.796875 17.390625 18.875 11.75 
Q 22.953125 6.109375 30.078125 6.109375 
Q 37.203125 6.109375 41.296875 11.75 
Q 45.40625 17.390625 45.40625 27.296875 
Q 45.40625 37.203125 41.296875 42.84375 
Q 37.203125 48.484375 30.078125 48.484375 
Q 22.953125 48.484375 18.875 42.84375 
Q 14.796875 37.203125 14.796875 27.296875 
" id="DejaVuSans-64"/>
      <path d="M 56.203125 29.59375 
L 56.203125 25.203125 
L 14.890625 25.203125 
Q 15.484375 15.921875 20.484375 11.0625 
Q 25.484375 6.203125 34.421875 6.203125 
Q 39.59375 6.203125 44.453125 7.46875 
Q 49.3125 8.734375 54.109375 11.28125 
L 54.109375 2.78125 
Q 49.265625 0.734375 44.1875 -0.34375 
Q 39.109375 -1.421875 33.890625 -1.421875 
Q 20.796875 -1.421875 13.15625 6.1875 
Q 5.515625 13.8125 5.515625 26.8125 
Q 5.515625 40.234375 12.765625 48.109375 
Q 20.015625 56 32.328125 56 
Q 43.359375 56 49.78125 48.890625 
Q 56.203125 41.796875 56.203125 29.59375 
M 47.21875 32.234375 
Q 47.125 39.59375 43.09375 43.984375 
Q 39.0625 48.390625 32.421875 48.390625 
Q 24.90625 48.390625 20.390625 44.140625 
Q 15.875 39.890625 15.1875 32.171875 
z
" id="DejaVuSans-65"/>
      <path d="M 3.328125 72.90625 
L 13.28125 72.90625 
L 28.609375 11.28125 
L 43.890625 72.90625 
L 54.984375 72.90625 
L 70.3125 11.28125 
L 85.59375 72.90625 
L 95.609375 72.90625 
L 77.296875 0 
L 64.890625 0 
L 49.515625 63.28125 
L 33.984375 0 
L 21.578125 0 
z
" id="DejaVuSans-57"/>
      <path d="M 34.28125 27.484375 
Q 23.390625 27.484375 19.1875 25 
Q 14.984375 22.515625 14.984375 16.5 
Q 14.984375 11.71875 18.140625 8.90625 
Q 21.296875 6.109375 26.703125 6.109375 
Q 34.1875 6.109375 38.703125 11.40625 
Q 43.21875 16.703125 43.21875 25.484375 
L 43.21875 27.484375 
z
M 52.203125 31.203125 
L 52.203125 0 
L 43.21875 0 
L 43.21875 8.296875 
Q 40.140625 3.328125 35.546875 0.953125 
Q 30.953125 -1.421875 24.3125 -1.421875 
Q 15.921875 -1.421875 10.953125 3.296875 
Q 6 8.015625 6 15.921875 
Q 6 25.140625 12.171875 29.828125 
Q 18.359375 34.515625 30.609375 34.515625 
L 43.21875 34.515625 
L 43.21875 35.40625 
Q 43.21875 41.609375 39.140625 45 
Q 35.0625 48.390625 27.6875 48.390625 
Q 23 48.390625 18.546875 47.265625 
Q 14.109375 46.140625 10.015625 43.890625 
L 10.015625 52.203125 
Q 14.9375 54.109375 19.578125 55.046875 
Q 24.21875 56 28.609375 56 
Q 40.484375 56 46.34375 49.84375 
Q 52.203125 43.703125 52.203125 31.203125 
" id="DejaVuSans-61"/>
     </defs>
     <g transform="translate(262.8675 114.08175)scale(0.144 -0.144)">
      <use xlink:href="#DejaVuSans-57"/>
      <use x="98.845703125" xlink:href="#DejaVuSans-69"/>
      <use x="126.62890625" xlink:href="#DejaVuSans-6c"/>
      <use x="154.412109375" xlink:href="#DejaVuSans-64"/>
      <use x="217.888671875" xlink:href="#DejaVuSans-20"/>
      <use x="249.67578125" xlink:href="#DejaVuSans-4d"/>
      <use x="335.955078125" xlink:href="#DejaVuSans-65"/>
      <use x="397.478515625" xlink:href="#DejaVuSans-67"/>
      <use x="460.955078125" xlink:href="#DejaVuSans-61"/>
      <use x="522.234375" xlink:href="#DejaVuSans-66"/>
      <use x="557.439453125" xlink:href="#DejaVuSans-61"/>
      <use x="618.71875" xlink:href="#DejaVuSans-75"/>
      <use x="682.09765625" xlink:href="#DejaVuSans-6e"/>
      <use x="745.4765625" xlink:href="#DejaVuSans-61"/>
     </g>
    </g>
    <g id="patch_9">
     <path d="M 222.5475 135.21825 
L 251.3475 135.21825 
L 251.3475 125.13825 
L 222.5475 125.13825 
z
" style="fill:#31688e;stroke:#000000;stroke-linejoin:miter;"/>
    </g>
    <g id="text_21">
     <!-- Humans -->
     <defs>
      <path d="M 52 44.1875 
Q 55.375 50.25 60.0625 53.125 
Q 64.75 56 71.09375 56 
Q 79.640625 56 84.28125 50.015625 
Q 88.921875 44.046875 88.921875 33.015625 
L 88.921875 0 
L 79.890625 0 
L 79.890625 32.71875 
Q 79.890625 40.578125 77.09375 44.375 
Q 74.3125 48.1875 68.609375 48.1875 
Q 61.625 48.1875 57.5625 43.546875 
Q 53.515625 38.921875 53.515625 30.90625 
L 53.515625 0 
L 44.484375 0 
L 44.484375 32.71875 
Q 44.484375 40.625 41.703125 44.40625 
Q 38.921875 48.1875 33.109375 48.1875 
Q 26.21875 48.1875 22.15625 43.53125 
Q 18.109375 38.875 18.109375 30.90625 
L 18.109375 0 
L 9.078125 0 
L 9.078125 54.6875 
L 18.109375 54.6875 
L 18.109375 46.1875 
Q 21.1875 51.21875 25.484375 53.609375 
Q 29.78125 56 35.6875 56 
Q 41.65625 56 45.828125 52.96875 
Q 50 49.953125 52 44.1875 
" id="DejaVuSans-6d"/>
      <path d="M 9.8125 72.90625 
L 19.671875 72.90625 
L 19.671875 43.015625 
L 55.515625 43.015625 
L 55.515625 72.90625 
L 65.375 72.90625 
L 65.375 0 
L 55.515625 0 
L 55.515625 34.71875 
L 19.671875 34.71875 
L 19.671875 0 
L 9.8125 0 
z
" id="DejaVuSans-48"/>
      <path d="M 44.28125 53.078125 
L 44.28125 44.578125 
Q 40.484375 46.53125 36.375 47.5 
Q 32.28125 48.484375 27.875 48.484375 
Q 21.1875 48.484375 17.84375 46.4375 
Q 14.5 44.390625 14.5 40.28125 
Q 14.5 37.15625 16.890625 35.375 
Q 19.28125 33.59375 26.515625 31.984375 
L 29.59375 31.296875 
Q 39.15625 29.25 43.1875 25.515625 
Q 47.21875 21.78125 47.21875 15.09375 
Q 47.21875 7.46875 41.1875 3.015625 
Q 35.15625 -1.421875 24.609375 -1.421875 
Q 20.21875 -1.421875 15.453125 -0.5625 
Q 10.6875 0.296875 5.421875 2 
L 5.421875 11.28125 
Q 10.40625 8.6875 15.234375 7.390625 
Q 20.0625 6.109375 24.8125 6.109375 
Q 31.15625 6.109375 34.5625 8.28125 
Q 37.984375 10.453125 37.984375 14.40625 
Q 37.984375 18.0625 35.515625 20.015625 
Q 33.0625 21.96875 24.703125 23.78125 
L 21.578125 24.515625 
Q 13.234375 26.265625 9.515625 29.90625 
Q 5.8125 33.546875 5.8125 39.890625 
Q 5.8125 47.609375 11.28125 51.796875 
Q 16.75 56 26.8125 56 
Q 31.78125 56 36.171875 55.265625 
Q 40.578125 54.546875 44.28125 53.078125 
" id="DejaVuSans-73"/>
     </defs>
     <g transform="translate(262.8675 135.21825)scale(0.144 -0.144)">
      <use xlink:href="#DejaVuSans-48"/>
      <use x="75.1953125" xlink:href="#DejaVuSans-75"/>
      <use x="138.57421875" xlink:href="#DejaVuSans-6d"/>
      <use x="235.986328125" xlink:href="#DejaVuSans-61"/>
      <use x="297.265625" xlink:href="#DejaVuSans-6e"/>
      <use x="360.64453125" xlink:href="#DejaVuSans-73"/>
     </g>
    </g>
    <g id="patch_10">
     <path d="M 222.5475 156.35475 
L 251.3475 156.35475 
L 251.3475 146.27475 
L 222.5475 146.27475 
z
" style="fill:#35b779;stroke:#000000;stroke-linejoin:miter;"/>
    </g>
    <g id="text_22">
     <!-- Cattle -->
     <defs>
      <path d="M 18.3125 70.21875 
L 18.3125 54.6875 
L 36.8125 54.6875 
L 36.8125 47.703125 
L 18.3125 47.703125 
L 18.3125 18.015625 
Q 18.3125 11.328125 20.140625 9.421875 
Q 21.96875 7.515625 27.59375 7.515625 
L 36.8125 7.515625 
L 36.8125 0 
L 27.59375 0 
Q 17.1875 0 13.234375 3.875 
Q 9.28125 7.765625 9.28125 18.015625 
L 9.28125 47.703125 
L 2.6875 47.703125 
L 2.6875 54.6875 
L 9.28125 54.6875 
L 9.28125 70.21875 
z
" id="DejaVuSans-74"/>
      <path d="M 64.40625 67.28125 
L 64.40625 56.890625 
Q 59.421875 61.53125 53.78125 63.8125 
Q 48.140625 66.109375 41.796875 66.109375 
Q 29.296875 66.109375 22.65625 58.46875 
Q 16.015625 50.828125 16.015625 36.375 
Q 16.015625 21.96875 22.65625 14.328125 
Q 29.296875 6.6875 41.796875 6.6875 
Q 48.140625 6.6875 53.78125 8.984375 
Q 59.421875 11.28125 64.40625 15.921875 
L 64.40625 5.609375 
Q 59.234375 2.09375 53.4375 0.328125 
Q 47.65625 -1.421875 41.21875 -1.421875 
Q 24.65625 -1.421875 15.125 8.703125 
Q 5.609375 18.84375 5.609375 36.375 
Q 5.609375 53.953125 15.125 64.078125 
Q 24.65625 74.21875 41.21875 74.21875 
Q 47.75 74.21875 53.53125 72.484375 
Q 59.328125 70.75 64.40625 67.28125 
" id="DejaVuSans-43"/>
     </defs>
     <g transform="translate(262.8675 156.35475)scale(0.144 -0.144)">
      <use xlink:href="#DejaVuSans-43"/>
      <use x="69.82421875" xlink:href="#DejaVuSans-61"/>
      <use x="131.103515625" xlink:href="#DejaVuSans-74"/>
      <use x="170.3125" xlink:href="#DejaVuSans-74"/>
      <use x="209.521484375" xlink:href="#DejaVuSans-6c"/>
      <use x="237.3046875" xlink:href="#DejaVuSans-65"/>
     </g>
    </g>
    <g id="patch_11">
     <path d="M 222.5475 177.49125 
L 251.3475 177.49125 
L 251.3475 167.41125 
L 222.5475 167.41125 
z
" style="fill:#fde725;stroke:#000000;stroke-linejoin:miter;"/>
    </g>
    <g id="text_23">
     <!-- Other Livestock -->
     <defs>
      <path d="M 39.40625 66.21875 
Q 28.65625 66.21875 22.328125 58.203125 
Q 16.015625 50.203125 16.015625 36.375 
Q 16.015625 22.609375 22.328125 14.59375 
Q 28.65625 6.59375 39.40625 6.59375 
Q 50.140625 6.59375 56.421875 14.59375 
Q 62.703125 22.609375 62.703125 36.375 
Q 62.703125 50.203125 56.421875 58.203125 
Q 50.140625 66.21875 39.40625 66.21875 
M 39.40625 74.21875 
Q 54.734375 74.21875 63.90625 63.9375 
Q 73.09375 53.65625 73.09375 36.375 
Q 73.09375 19.140625 63.90625 8.859375 
Q 54.734375 -1.421875 39.40625 -1.421875 
Q 24.03125 -1.421875 14.8125 8.828125 
Q 5.609375 19.09375 5.609375 36.375 
Q 5.609375 53.65625 14.8125 63.9375 
Q 24.03125 74.21875 39.40625 74.21875 
" id="DejaVuSans-4f"/>
      <path d="M 9.8125 72.90625 
L 19.671875 72.90625 
L 19.671875 8.296875 
L 55.171875 8.296875 
L 55.171875 0 
L 9.8125 0 
z
" id="DejaVuSans-4c"/>
      <path d="M 30.609375 48.390625 
Q 23.390625 48.390625 19.1875 42.75 
Q 14.984375 37.109375 14.984375 27.296875 
Q 14.984375 17.484375 19.15625 11.84375 
Q 23.34375 6.203125 30.609375 6.203125 
Q 37.796875 6.203125 41.984375 11.859375 
Q 46.1875 17.53125 46.1875 27.296875 
Q 46.1875 37.015625 41.984375 42.703125 
Q 37.796875 48.390625 30.609375 48.390625 
M 30.609375 56 
Q 42.328125 56 49.015625 48.375 
Q 55.71875 40.765625 55.71875 27.296875 
Q 55.71875 13.875 49.015625 6.21875 
Q 42.328125 -1.421875 30.609375 -1.421875 
Q 18.84375 -1.421875 12.171875 6.21875 
Q 5.515625 13.875 5.515625 27.296875 
Q 5.515625 40.765625 12.171875 48.375 
Q 18.84375 56 30.609375 56 
" id="DejaVuSans-6f"/>
      <path d="M 9.078125 75.984375 
L 18.109375 75.984375 
L 18.109375 31.109375 
L 44.921875 54.6875 
L 56.390625 54.6875 
L 27.390625 29.109375 
L 57.625 0 
L 45.90625 0 
L 18.109375 26.703125 
L 18.109375 0 
L 9.078125 0 
z
" id="DejaVuSans-6b"/>
      <path d="M 54.890625 33.015625 
L 54.890625 0 
L 45.90625 0 
L 45.90625 32.71875 
Q 45.90625 40.484375 42.875 44.328125 
Q 39.84375 48.1875 33.796875 48.1875 
Q 26.515625 48.1875 22.3125 43.546875 
Q 18.109375 38.921875 18.109375 30.90625 
L 18.109375 0 
L 9.078125 0 
L 9.078125 75.984375 
L 18.109375 75.984375 
L 18.109375 46.1875 
Q 21.34375 51.125 25.703125 53.5625 
Q 30.078125 56 35.796875 56 
Q 45.21875 56 50.046875 50.171875 
Q 54.890625 44.34375 54.890625 33.015625 
" id="DejaVuSans-68"/>
      <path d="M 2.984375 54.6875 
L 12.5 54.6875 
L 29.59375 8.796875 
L 46.6875 54.6875 
L 56.203125 54.6875 
L 35.6875 0 
L 23.484375 0 
z
" id="DejaVuSans-76"/>
      <path d="M 48.78125 52.59375 
L 48.78125 44.1875 
Q 44.96875 46.296875 41.140625 47.34375 
Q 37.3125 48.390625 33.40625 48.390625 
Q 24.65625 48.390625 19.8125 42.84375 
Q 14.984375 37.3125 14.984375 27.296875 
Q 14.984375 17.28125 19.8125 11.734375 
Q 24.65625 6.203125 33.40625 6.203125 
Q 37.3125 6.203125 41.140625 7.25 
Q 44.96875 8.296875 48.78125 10.40625 
L 48.78125 2.09375 
Q 45.015625 0.34375 40.984375 -0.53125 
Q 36.96875 -1.421875 32.421875 -1.421875 
Q 20.0625 -1.421875 12.78125 6.34375 
Q 5.515625 14.109375 5.515625 27.296875 
Q 5.515625 40.671875 12.859375 48.328125 
Q 20.21875 56 33.015625 56 
Q 37.15625 56 41.109375 55.140625 
Q 45.0625 54.296875 48.78125 52.59375 
" id="DejaVuSans-63"/>
      <path d="M 41.109375 46.296875 
Q 39.59375 47.171875 37.8125 47.578125 
Q 36.03125 48 33.890625 48 
Q 26.265625 48 22.1875 43.046875 
Q 18.109375 38.09375 18.109375 28.8125 
L 18.109375 0 
L 9.078125 0 
L 9.078125 54.6875 
L 18.109375 54.6875 
L 18.109375 46.1875 
Q 20.953125 51.171875 25.484375 53.578125 
Q 30.03125 56 36.53125 56 
Q 37.453125 56 38.578125 55.875 
Q 39.703125 55.765625 41.0625 55.515625 
z
" id="DejaVuSans-72"/>
     </defs>
     <g transform="translate(262.8675 177.49125)scale(0.144 -0.144)">
      <use xlink:href="#DejaVuSans-4f"/>
      <use x="78.7109375" xlink:href="#DejaVuSans-74"/>
      <use x="117.919921875" xlink:href="#DejaVuSans-68"/>
      <use x="181.298828125" xlink:href="#DejaVuSans-65"/>
      <use x="242.822265625" xlink:href="#DejaVuSans-72"/>
      <use x="283.935546875" xlink:href="#DejaVuSans-20"/>
      <use x="315.72265625" xlink:href="#DejaVuSans-4c"/>
      <use x="371.435546875" xlink:href="#DejaVuSans-69"/>
      <use x="399.21875" xlink:href="#DejaVuSans-76"/>
      <use x="458.3984375" xlink:href="#DejaVuSans-65"/>
      <use x="519.921875" xlink:href="#DejaVuSans-73"/>
      <use x="572.021484375" xlink:href="#DejaVuSans-74"/>
      <use x="611.23046875" xlink:href="#DejaVuSans-6f"/>
      <use x="672.412109375" xlink:href="#DejaVuSans-63"/>
      <use x="727.392578125" xlink:href="#DejaVuSans-6b"/>
     </g>
    </g>
   </g>
  </g>
 </g>
 <defs>
  <clipPath id="pf6da48be01">
   <rect height="721.44" width="1299.4425" x="209.5875" y="90.18"/>
  </clipPath>
 </defs>
</svg>
