<?xml version="1.0" encoding="UTF-8" standalone="no"?>
<!-- Created with matplotlib (http://matplotlib.org/) -->

<svg
   xmlns:dc="http://purl.org/dc/elements/1.1/"
   xmlns:cc="http://creativecommons.org/ns#"
   xmlns:rdf="http://www.w3.org/1999/02/22-rdf-syntax-ns#"
   xmlns:svg="http://www.w3.org/2000/svg"
   xmlns="http://www.w3.org/2000/svg"
   xmlns:xlink="http://www.w3.org/1999/xlink"
   xmlns:sodipodi="http://sodipodi.sourceforge.net/DTD/sodipodi-0.dtd"
   xmlns:inkscape="http://www.inkscape.org/namespaces/inkscape"
   height="670pt"
   version="1.1"
   viewBox="0 0 1104 670"
   width="1104pt"
   id="svg2"
   inkscape:version="0.48.4 r9939"
   sodipodi:docname="20160107_detailed_fig.svg"
   inkscape:export-filename="/home/yinonbaron/git/RuBisCO_vs_Collagen/20160107_detailed_fig.png"
   inkscape:export-xdpi="207.13"
   inkscape:export-ydpi="207.13">
  <metadata
     id="metadata582">
    <rdf:RDF>
      <cc:Work
         rdf:about="">
        <dc:format>image/svg+xml</dc:format>
        <dc:type
           rdf:resource="http://purl.org/dc/dcmitype/StillImage" />
        <dc:title></dc:title>
      </cc:Work>
    </rdf:RDF>
  </metadata>
  <sodipodi:namedview
     pagecolor="#ffffff"
     bordercolor="#666666"
     borderopacity="1"
     objecttolerance="10"
     gridtolerance="10"
     guidetolerance="10"
     inkscape:pageopacity="0"
     inkscape:pageshadow="2"
     inkscape:window-width="1863"
     inkscape:window-height="1056"
     id="namedview580"
     showgrid="false"
     inkscape:zoom="0.84637681"
     inkscape:cx="852.76066"
     inkscape:cy="506.68302"
     inkscape:window-x="57"
     inkscape:window-y="24"
     inkscape:window-maximized="1"
     inkscape:current-layer="axes_1" />
  <defs
     id="defs4">
    <style
       type="text/css"
       id="style6">
*{stroke-linecap:butt;stroke-linejoin:round;stroke-miterlimit:100000;}
  </style>
  </defs>
  <g
     id="figure_1">
    <g
       id="patch_1">
      <path
         d="M 0 670.5  L 1104.3 670.5  L 1104.3 0  L 0 0  z "
         style="fill:#ffffff;"
         id="path10" />
    </g>
    <g
       id="axes_1">
      <g
         id="patch_2">
        <path
           d="M 138.0375 603.45  L 993.87 603.45  L 993.87 67.05  L 138.0375 67.05  z "
           style="fill:#ffffff;"
           id="path14" />
      </g>
      <g
         id="PolyCollection_1">
        <defs
           id="defs17">
          <path
             d="M 138.0375 -89.584808  L 138.0375 -67.05  L 155.15415 -67.05  L 172.2708 -67.05  L 189.38745 -67.05  L 206.5041 -67.05  L 223.62075 -67.05  L 240.7374 -67.05  L 257.85405 -67.05  L 274.9707 -67.05  L 292.08735 -67.05  L 309.204 -67.05  L 326.32065 -67.05  L 343.4373 -67.05  L 360.55395 -67.05  L 377.6706 -67.05  L 394.78725 -67.05  L 411.9039 -67.05  L 429.02055 -67.05  L 446.1372 -67.05  L 463.25385 -67.05  L 480.3705 -67.05  L 497.48715 -67.05  L 514.6038 -67.05  L 531.72045 -67.05  L 548.8371 -67.05  L 565.95375 -67.05  L 583.0704 -67.05  L 600.18705 -67.05  L 617.3037 -67.05  L 634.42035 -67.05  L 651.537 -67.05  L 668.65365 -67.05  L 685.7703 -67.05  L 702.88695 -67.05  L 720.0036 -67.05  L 737.12025 -67.05  L 754.2369 -67.05  L 771.35355 -67.05  L 788.4702 -67.05  L 805.58685 -67.05  L 822.7035 -67.05  L 839.82015 -67.05  L 856.9368 -67.05  L 874.05345 -67.05  L 891.1701 -67.05  L 908.28675 -67.05  L 925.4034 -67.05  L 942.52005 -67.05  L 959.6367 -67.05  L 976.75335 -67.05  L 993.87 -67.05  L 993.87 -89.584808  L 993.87 -89.584808  L 976.75335 -89.584808  L 959.6367 -89.584808  L 942.52005 -89.584808  L 925.4034 -89.584808  L 908.28675 -89.584808  L 891.1701 -89.584808  L 874.05345 -89.584808  L 856.9368 -89.584808  L 839.82015 -89.584808  L 822.7035 -89.584808  L 805.58685 -89.584808  L 788.4702 -89.584808  L 771.35355 -89.584808  L 754.2369 -89.584808  L 737.12025 -89.584808  L 720.0036 -89.584808  L 702.88695 -89.584808  L 685.7703 -89.584808  L 668.65365 -89.584808  L 651.537 -89.584808  L 634.42035 -89.584808  L 617.3037 -89.584808  L 600.18705 -89.584808  L 583.0704 -89.584808  L 565.95375 -89.584808  L 548.8371 -89.584808  L 531.72045 -89.584808  L 514.6038 -89.584808  L 497.48715 -89.584808  L 480.3705 -89.584808  L 463.25385 -89.584808  L 446.1372 -89.584808  L 429.02055 -89.584808  L 411.9039 -89.584808  L 394.78725 -89.584808  L 377.6706 -89.584808  L 360.55395 -89.584808  L 343.4373 -89.584808  L 326.32065 -89.584808  L 309.204 -89.584808  L 292.08735 -89.584808  L 274.9707 -89.584808  L 257.85405 -89.584808  L 240.7374 -89.584808  L 223.62075 -89.584808  L 206.5041 -89.584808  L 189.38745 -89.584808  L 172.2708 -89.584808  L 155.15415 -89.584808  L 138.0375 -89.584808  z "
             id="mbb93d0cfe3"
             style="stroke:#440154;" />
        </defs>
        <g
           clip-path="url(#pbeb68c7df6)"
           id="g20">
          <use
             style="fill:#440154;stroke:#440154;"
             x="0.0"
             xlink:href="#mbb93d0cfe3"
             y="670.5"
             id="use22" />
        </g>
      </g>
      <g
         id="PolyCollection_2">
        <defs
           id="defs25">
          <path
             d="M 138.0375 -155.914293  L 138.0375 -89.584808  L 155.15415 -89.584808  L 172.2708 -89.584808  L 189.38745 -89.584808  L 206.5041 -89.584808  L 223.62075 -89.584808  L 240.7374 -89.584808  L 257.85405 -89.584808  L 274.9707 -89.584808  L 292.08735 -89.584808  L 309.204 -89.584808  L 326.32065 -89.584808  L 343.4373 -89.584808  L 360.55395 -89.584808  L 377.6706 -89.584808  L 394.78725 -89.584808  L 411.9039 -89.584808  L 429.02055 -89.584808  L 446.1372 -89.584808  L 463.25385 -89.584808  L 480.3705 -89.584808  L 497.48715 -89.584808  L 514.6038 -89.584808  L 531.72045 -89.584808  L 548.8371 -89.584808  L 565.95375 -89.584808  L 583.0704 -89.584808  L 600.18705 -89.584808  L 617.3037 -89.584808  L 634.42035 -89.584808  L 651.537 -89.584808  L 668.65365 -89.584808  L 685.7703 -89.584808  L 702.88695 -89.584808  L 720.0036 -89.584808  L 737.12025 -89.584808  L 754.2369 -89.584808  L 771.35355 -89.584808  L 788.4702 -89.584808  L 805.58685 -89.584808  L 822.7035 -89.584808  L 839.82015 -89.584808  L 856.9368 -89.584808  L 874.05345 -89.584808  L 891.1701 -89.584808  L 908.28675 -89.584808  L 925.4034 -89.584808  L 942.52005 -89.584808  L 959.6367 -89.584808  L 976.75335 -89.584808  L 993.87 -89.584808  L 993.87 -240.688863  L 993.87 -240.688863  L 976.75335 -238.89506  L 959.6367 -237.111476  L 942.52005 -235.329998  L 925.4034 -233.552527  L 908.28675 -231.804187  L 891.1701 -230.061024  L 874.05345 -228.328872  L 856.9368 -226.605189  L 839.82015 -224.893078  L 822.7035 -223.184147  L 805.58685 -221.465279  L 788.4702 -219.729699  L 771.35355 -217.973215  L 754.2369 -216.198971  L 737.12025 -214.406868  L 720.0036 -212.620423  L 702.88695 -210.792317  L 685.7703 -208.99349  L 668.65365 -207.175481  L 651.537 -205.374086  L 634.42035 -203.497492  L 617.3037 -201.560792  L 600.18705 -199.644135  L 583.0704 -197.726914  L 565.95375 -195.828099  L 548.8371 -193.976612  L 531.72045 -192.185957  L 514.6038 -190.434686  L 497.48715 -188.67737  L 480.3705 -186.932431  L 463.25385 -185.252248  L 446.1372 -183.609778  L 429.02055 -181.981182  L 411.9039 -180.389336  L 394.78725 -178.825012  L 377.6706 -177.255478  L 360.55395 -175.643316  L 343.4373 -173.996081  L 326.32065 -172.362121  L 309.204 -170.707974  L 292.08735 -169.041672  L 274.9707 -167.423089  L 257.85405 -165.819436  L 240.7374 -164.305997  L 223.62075 -162.809341  L 206.5041 -161.304279  L 189.38745 -159.866066  L 172.2708 -158.455511  L 155.15415 -157.056144  L 138.0375 -155.914293  z "
             id="m21c7e215c0"
             style="stroke:#31688e;" />
        </defs>
        <g
           clip-path="url(#pbeb68c7df6)"
           id="g28">
          <use
             style="fill:#31688e;stroke:#31688e;"
             x="0.0"
             xlink:href="#m21c7e215c0"
             y="670.5"
             id="use30" />
        </g>
      </g>
      <g
         id="PolyCollection_3">
        <defs
           id="defs33">
          <path
             d="M 138.0375 -297.971951  L 138.0375 -155.914293  L 155.15415 -157.056144  L 172.2708 -158.455511  L 189.38745 -159.866066  L 206.5041 -161.304279  L 223.62075 -162.809341  L 240.7374 -164.305997  L 257.85405 -165.819436  L 274.9707 -167.423089  L 292.08735 -169.041672  L 309.204 -170.707974  L 326.32065 -172.362121  L 343.4373 -173.996081  L 360.55395 -175.643316  L 377.6706 -177.255478  L 394.78725 -178.825012  L 411.9039 -180.389336  L 429.02055 -181.981182  L 446.1372 -183.609778  L 463.25385 -185.252248  L 480.3705 -186.932431  L 497.48715 -188.67737  L 514.6038 -190.434686  L 531.72045 -192.185957  L 548.8371 -193.976612  L 565.95375 -195.828099  L 583.0704 -197.726914  L 600.18705 -199.644135  L 617.3037 -201.560792  L 634.42035 -203.497492  L 651.537 -205.374086  L 668.65365 -207.175481  L 685.7703 -208.99349  L 702.88695 -210.792317  L 720.0036 -212.620423  L 737.12025 -214.406868  L 754.2369 -216.198971  L 771.35355 -217.973215  L 788.4702 -219.729699  L 805.58685 -221.465279  L 822.7035 -223.184147  L 839.82015 -224.893078  L 856.9368 -226.605189  L 874.05345 -228.328872  L 891.1701 -230.061024  L 908.28675 -231.804187  L 925.4034 -233.552527  L 942.52005 -235.329998  L 959.6367 -237.111476  L 976.75335 -238.89506  L 993.87 -240.688863  L 993.87 -452.09969  L 993.87 -452.09969  L 976.75335 -450.353522  L 959.6367 -448.209476  L 942.52005 -445.315747  L 925.4034 -442.108297  L 908.28675 -437.689213  L 891.1701 -432.376877  L 874.05345 -427.88333  L 856.9368 -423.386399  L 839.82015 -419.491312  L 822.7035 -416.005953  L 805.58685 -413.071949  L 788.4702 -411.039756  L 771.35355 -409.58939  L 754.2369 -409.224238  L 737.12025 -408.124192  L 720.0036 -406.640139  L 702.88695 -404.108471  L 685.7703 -400.709067  L 668.65365 -398.647562  L 651.537 -396.974933  L 634.42035 -394.738826  L 617.3037 -391.745779  L 600.18705 -387.929117  L 583.0704 -385.522829  L 565.95375 -383.871155  L 548.8371 -380.474286  L 531.72045 -377.92697  L 514.6038 -374.979668  L 497.48715 -371.626126  L 480.3705 -367.599473  L 463.25385 -363.577272  L 446.1372 -361.200245  L 429.02055 -359.154836  L 411.9039 -357.642289  L 394.78725 -356.159179  L 377.6706 -353.543416  L 360.55395 -348.912193  L 343.4373 -343.050629  L 326.32065 -338.972587  L 309.204 -334.295891  L 292.08735 -330.397276  L 274.9707 -327.187357  L 257.85405 -324.864647  L 240.7374 -321.206184  L 223.62075 -317.164483  L 206.5041 -312.788207  L 189.38745 -308.978772  L 172.2708 -304.742904  L 155.15415 -301.191743  L 138.0375 -297.971951  z "
             id="m08943cde9b"
             style="stroke:#35b779;" />
        </defs>
        <g
           clip-path="url(#pbeb68c7df6)"
           id="g36">
          <use
             style="fill:#35b779;stroke:#35b779;"
             x="0.0"
             xlink:href="#m08943cde9b"
             y="670.5"
             id="use38" />
        </g>
      </g>
      <g
         id="PolyCollection_4">
        <defs
           id="defs41">
          <path
             d="M 138.0375 -333.836126  L 138.0375 -297.971951  L 155.15415 -301.191743  L 172.2708 -304.742904  L 189.38745 -308.978772  L 206.5041 -312.788207  L 223.62075 -317.164483  L 240.7374 -321.206184  L 257.85405 -324.864647  L 274.9707 -327.187357  L 292.08735 -330.397276  L 309.204 -334.295891  L 326.32065 -338.972587  L 343.4373 -343.050629  L 360.55395 -348.912193  L 377.6706 -353.543416  L 394.78725 -356.159179  L 411.9039 -357.642289  L 429.02055 -359.154836  L 446.1372 -361.200245  L 463.25385 -363.577272  L 480.3705 -367.599473  L 497.48715 -371.626126  L 514.6038 -374.979668  L 531.72045 -377.92697  L 548.8371 -380.474286  L 565.95375 -383.871155  L 583.0704 -385.522829  L 600.18705 -387.929117  L 617.3037 -391.745779  L 634.42035 -394.738826  L 651.537 -396.974933  L 668.65365 -398.647562  L 685.7703 -400.709067  L 702.88695 -404.108471  L 720.0036 -406.640139  L 737.12025 -408.124192  L 754.2369 -409.224238  L 771.35355 -409.58939  L 788.4702 -411.039756  L 805.58685 -413.071949  L 822.7035 -416.005953  L 839.82015 -419.491312  L 856.9368 -423.386399  L 874.05345 -427.88333  L 891.1701 -432.376877  L 908.28675 -437.689213  L 925.4034 -442.108297  L 942.52005 -445.315747  L 959.6367 -448.209476  L 976.75335 -450.353522  L 993.87 -452.09969  L 993.87 -510.573257  L 993.87 -510.573257  L 976.75335 -508.542757  L 959.6367 -505.722235  L 942.52005 -502.454755  L 925.4034 -499.03045  L 908.28675 -493.49609  L 891.1701 -487.536654  L 874.05345 -481.577647  L 856.9368 -475.995115  L 839.82015 -471.251744  L 822.7035 -467.430294  L 805.58685 -464.462113  L 788.4702 -462.091028  L 771.35355 -459.894249  L 754.2369 -459.108356  L 737.12025 -458.34128  L 720.0036 -457.270396  L 702.88695 -454.856847  L 685.7703 -451.21026  L 668.65365 -449.902165  L 651.537 -448.561464  L 634.42035 -446.505096  L 617.3037 -443.033463  L 600.18705 -437.960571  L 583.0704 -435.159387  L 565.95375 -432.714476  L 548.8371 -428.660053  L 531.72045 -425.921247  L 514.6038 -422.88052  L 497.48715 -419.358325  L 480.3705 -415.123611  L 463.25385 -411.042075  L 446.1372 -407.532146  L 429.02055 -404.392542  L 411.9039 -401.921525  L 394.78725 -399.892872  L 377.6706 -397.248301  L 360.55395 -392.19747  L 343.4373 -385.783455  L 326.32065 -381.74568  L 309.204 -376.543464  L 292.08735 -370.911024  L 274.9707 -367.64157  L 257.85405 -365.381  L 240.7374 -361.192532  L 223.62075 -355.934613  L 206.5041 -351.012306  L 189.38745 -346.027434  L 172.2708 -341.473418  L 155.15415 -337.441975  L 138.0375 -333.836126  z "
             id="m05c3388dc2"
             style="stroke:#fde725;" />
        </defs>
        <g
           clip-path="url(#pbeb68c7df6)"
           id="g44">
          <use
             style="fill:#fde725;stroke:#fde725;"
             x="0.0"
             xlink:href="#m05c3388dc2"
             y="670.5"
             id="use46" />
        </g>
      </g>
      <g
         id="line2d_1">
        <path
           clip-path="url(#pbeb68c7df6)"
           d="M 138.0375 580.915192  L 155.15415 580.915192  L 172.2708 580.915192  L 189.38745 580.915192  L 206.5041 580.915192  L 223.62075 580.915192  L 240.7374 580.915192  L 257.85405 580.915192  L 274.9707 580.915192  L 292.08735 580.915192  L 309.204 580.915192  L 326.32065 580.915192  L 343.4373 580.915192  L 360.55395 580.915192  L 377.6706 580.915192  L 394.78725 580.915192  L 411.9039 580.915192  L 429.02055 580.915192  L 446.1372 580.915192  L 463.25385 580.915192  L 480.3705 580.915192  L 497.48715 580.915192  L 514.6038 580.915192  L 531.72045 580.915192  L 548.8371 580.915192  L 565.95375 580.915192  L 583.0704 580.915192  L 600.18705 580.915192  L 617.3037 580.915192  L 634.42035 580.915192  L 651.537 580.915192  L 668.65365 580.915192  L 685.7703 580.915192  L 702.88695 580.915192  L 720.0036 580.915192  L 737.12025 580.915192  L 754.2369 580.915192  L 771.35355 580.915192  L 788.4702 580.915192  L 805.58685 580.915192  L 822.7035 580.915192  L 839.82015 580.915192  L 856.9368 580.915192  L 874.05345 580.915192  L 891.1701 580.915192  L 908.28675 580.915192  L 925.4034 580.915192  L 942.52005 580.915192  L 959.6367 580.915192  L 976.75335 580.915192  L 993.87 580.915192  "
           style="fill:none;stroke:#440154;stroke-linecap:square;"
           id="path55" />
      </g>
      <g
         id="line2d_2">
        <path
           clip-path="url(#pbeb68c7df6)"
           d="M 138.0375 514.585707  L 155.15415 513.443856  L 172.2708 512.044489  L 189.38745 510.633934  L 206.5041 509.195721  L 223.62075 507.690659  L 240.7374 506.194003  L 257.85405 504.680564  L 274.9707 503.076911  L 292.08735 501.458328  L 309.204 499.792026  L 326.32065 498.137879  L 343.4373 496.503919  L 360.55395 494.856684  L 377.6706 493.244522  L 394.78725 491.674988  L 411.9039 490.110664  L 429.02055 488.518818  L 446.1372 486.890222  L 463.25385 485.247752  L 480.3705 483.567569  L 497.48715 481.82263  L 514.6038 480.065314  L 531.72045 478.314043  L 548.8371 476.523388  L 565.95375 474.671901  L 583.0704 472.773086  L 600.18705 470.855865  L 617.3037 468.939208  L 634.42035 467.002508  L 651.537 465.125914  L 668.65365 463.324519  L 685.7703 461.50651  L 702.88695 459.707683  L 720.0036 457.879577  L 737.12025 456.093132  L 754.2369 454.301029  L 771.35355 452.526785  L 788.4702 450.770301  L 805.58685 449.034721  L 822.7035 447.315853  L 839.82015 445.606922  L 856.9368 443.894811  L 874.05345 442.171128  L 891.1701 440.438976  L 908.28675 438.695813  L 925.4034 436.947473  L 942.52005 435.170002  L 959.6367 433.388524  L 976.75335 431.60494  L 993.87 429.811137  "
           style="fill:none;stroke:#31688e;stroke-linecap:square;"
           id="path58" />
      </g>
      <g
         id="line2d_3">
        <path
           clip-path="url(#pbeb68c7df6)"
           d="M 138.0375 372.528049  L 155.15415 369.308257  L 172.2708 365.757096  L 189.38745 361.521228  L 206.5041 357.711793  L 223.62075 353.335517  L 240.7374 349.293816  L 257.85405 345.635353  L 274.9707 343.312643  L 292.08735 340.102724  L 309.204 336.204109  L 326.32065 331.527413  L 343.4373 327.449371  L 360.55395 321.587807  L 377.6706 316.956584  L 394.78725 314.340821  L 411.9039 312.857711  L 429.02055 311.345164  L 446.1372 309.299755  L 463.25385 306.922728  L 480.3705 302.900527  L 497.48715 298.873874  L 514.6038 295.520332  L 531.72045 292.57303  L 548.8371 290.025714  L 565.95375 286.628845  L 583.0704 284.977171  L 600.18705 282.570883  L 617.3037 278.754221  L 634.42035 275.761174  L 651.537 273.525067  L 668.65365 271.852438  L 685.7703 269.790933  L 702.88695 266.391529  L 720.0036 263.859861  L 737.12025 262.375808  L 754.2369 261.275762  L 771.35355 260.91061  L 788.4702 259.460244  L 805.58685 257.428051  L 822.7035 254.494047  L 839.82015 251.008688  L 856.9368 247.113601  L 874.05345 242.61667  L 891.1701 238.123123  L 908.28675 232.810787  L 925.4034 228.391703  L 942.52005 225.184253  L 959.6367 222.290524  L 976.75335 220.146478  L 993.87 218.40031  "
           style="fill:none;stroke:#35b779;stroke-linecap:square;"
           id="path61" />
      </g>
      <g
         id="line2d_4">
        <path
           clip-path="url(#pbeb68c7df6)"
           d="M 138.0375 336.663874  L 155.15415 333.058025  L 172.2708 329.026582  L 189.38745 324.472566  L 206.5041 319.487694  L 223.62075 314.565387  L 240.7374 309.307468  L 257.85405 305.119  L 274.9707 302.85843  L 292.08735 299.588976  L 309.204 293.956536  L 326.32065 288.75432  L 343.4373 284.716545  L 360.55395 278.30253  L 377.6706 273.251699  L 394.78725 270.607128  L 411.9039 268.578475  L 429.02055 266.107458  L 446.1372 262.967854  L 463.25385 259.457925  L 480.3705 255.376389  L 497.48715 251.141675  L 514.6038 247.61948  L 531.72045 244.578753  L 548.8371 241.839947  L 565.95375 237.785524  L 583.0704 235.340613  L 600.18705 232.539429  L 617.3037 227.466537  L 634.42035 223.994904  L 651.537 221.938536  L 668.65365 220.597835  L 685.7703 219.28974  L 702.88695 215.643153  L 720.0036 213.229604  L 737.12025 212.15872  L 754.2369 211.391644  L 771.35355 210.605751  L 788.4702 208.408972  L 805.58685 206.037887  L 822.7035 203.069706  L 839.82015 199.248256  L 856.9368 194.504885  L 874.05345 188.922353  L 891.1701 182.963346  L 908.28675 177.00391  L 925.4034 171.46955  L 942.52005 168.045245  L 959.6367 164.777765  L 976.75335 161.957243  L 993.87 159.926743  "
           style="fill:none;stroke:#fde725;stroke-linecap:square;"
           id="path64" />
      </g>
      <g
         id="LineCollection_1">
        <path
           clip-path="url(#pbeb68c7df6)"
           d="M 138.0375 195.786  L 1010.98665 195.786  "
           style="fill:none;stroke:#808080;stroke-opacity:0.7;stroke-width:100.0;"
           id="path49" />
      </g>
      <g
         id="LineCollection_2">
        <path
           clip-path="url(#pbeb68c7df6)"
           d="M 138.0375 195.786  L 1010.98665 195.786  "
           style="fill:none;stroke:#393933;stroke-width:10.0;"
           id="path52" />
      </g>
      <g
         id="patch_3">
        <path
           d="M 138.0375 67.05  L 993.87 67.05  "
           style="fill:none;stroke:#000000;stroke-linecap:square;stroke-linejoin:miter;"
           id="path67" />
      </g>
      <g
         id="patch_4">
        <path
           d="M 993.87 603.45  L 993.87 67.05  "
           style="fill:none;stroke:#000000;stroke-linecap:square;stroke-linejoin:miter;"
           id="path70" />
      </g>
      <g
         id="patch_5">
        <path
           d="M 138.0375 603.45  L 993.87 603.45  "
           style="fill:none;stroke:#000000;stroke-linecap:square;stroke-linejoin:miter;"
           id="path73" />
      </g>
      <g
         id="patch_6">
        <path
           d="M 138.0375 603.45  L 138.0375 67.05  "
           style="fill:none;stroke:#000000;stroke-linecap:square;stroke-linejoin:miter;"
           id="path76" />
      </g>
      <g
         id="matplotlib.axis_1">
        <g
           id="xtick_1">
          <g
             id="line2d_5">
            <defs
               id="defs81">
              <path
                 d="M 0 0  L 0 -4  "
                 id="m366b3b2fe0"
                 style="stroke:#000000;stroke-width:0.5;" />
            </defs>
            <g
               id="g84">
              <use
                 style="stroke:#000000;stroke-width:0.5;"
                 x="138.0375"
                 xlink:href="#m366b3b2fe0"
                 y="603.45"
                 id="use86" />
            </g>
          </g>
          <g
             id="line2d_6">
            <defs
               id="defs89">
              <path
                 d="M 0 0  L 0 4  "
                 id="m2ef3d5c002"
                 style="stroke:#000000;stroke-width:0.5;" />
            </defs>
            <g
               id="g92">
              <use
                 style="stroke:#000000;stroke-width:0.5;"
                 x="138.0375"
                 xlink:href="#m2ef3d5c002"
                 y="67.05"
                 id="use94" />
            </g>
          </g>
          <g
             id="text_1">
            <!-- 1961 -->
            <defs
               id="defs97">
              <path
                 d="M 12.40625 8.296875  L 28.515625 8.296875  L 28.515625 63.921875  L 10.984375 60.40625  L 10.984375 69.390625  L 28.421875 72.90625  L 38.28125 72.90625  L 38.28125 8.296875  L 54.390625 8.296875  L 54.390625 0  L 12.40625 0  z "
                 id="DejaVuSans-31" />
              <path
                 d="M 10.984375 1.515625  L 10.984375 10.5  Q 14.703125 8.734375 18.5 7.8125  Q 22.3125 6.890625 25.984375 6.890625  Q 35.75 6.890625 40.890625 13.453125  Q 46.046875 20.015625 46.78125 33.40625  Q 43.953125 29.203125 39.59375 26.953125  Q 35.25 24.703125 29.984375 24.703125  Q 19.046875 24.703125 12.671875 31.3125  Q 6.296875 37.9375 6.296875 49.421875  Q 6.296875 60.640625 12.9375 67.421875  Q 19.578125 74.21875 30.609375 74.21875  Q 43.265625 74.21875 49.921875 64.515625  Q 56.59375 54.828125 56.59375 36.375  Q 56.59375 19.140625 48.40625 8.859375  Q 40.234375 -1.421875 26.421875 -1.421875  Q 22.703125 -1.421875 18.890625 -0.6875  Q 15.09375 0.046875 10.984375 1.515625  M 30.609375 32.421875  Q 37.25 32.421875 41.125 36.953125  Q 45.015625 41.5 45.015625 49.421875  Q 45.015625 57.28125 41.125 61.84375  Q 37.25 66.40625 30.609375 66.40625  Q 23.96875 66.40625 20.09375 61.84375  Q 16.21875 57.28125 16.21875 49.421875  Q 16.21875 41.5 20.09375 36.953125  Q 23.96875 32.421875 30.609375 32.421875  "
                 id="DejaVuSans-39" />
              <path
                 d="M 33.015625 40.375  Q 26.375 40.375 22.484375 35.828125  Q 18.609375 31.296875 18.609375 23.390625  Q 18.609375 15.53125 22.484375 10.953125  Q 26.375 6.390625 33.015625 6.390625  Q 39.65625 6.390625 43.53125 10.953125  Q 47.40625 15.53125 47.40625 23.390625  Q 47.40625 31.296875 43.53125 35.828125  Q 39.65625 40.375 33.015625 40.375  M 52.59375 71.296875  L 52.59375 62.3125  Q 48.875 64.0625 45.09375 64.984375  Q 41.3125 65.921875 37.59375 65.921875  Q 27.828125 65.921875 22.671875 59.328125  Q 17.53125 52.734375 16.796875 39.40625  Q 19.671875 43.65625 24.015625 45.921875  Q 28.375 48.1875 33.59375 48.1875  Q 44.578125 48.1875 50.953125 41.515625  Q 57.328125 34.859375 57.328125 23.390625  Q 57.328125 12.15625 50.6875 5.359375  Q 44.046875 -1.421875 33.015625 -1.421875  Q 20.359375 -1.421875 13.671875 8.265625  Q 6.984375 17.96875 6.984375 36.375  Q 6.984375 53.65625 15.1875 63.9375  Q 23.390625 74.21875 37.203125 74.21875  Q 40.921875 74.21875 44.703125 73.484375  Q 48.484375 72.75 52.59375 71.296875  "
                 id="DejaVuSans-36" />
            </defs>
            <g
               transform="translate(99.8625 630.2453125)scale(0.3 -0.3)"
               id="g102">
              <use
                 xlink:href="#DejaVuSans-31"
                 id="use104" />
              <use
                 x="63.623046875"
                 xlink:href="#DejaVuSans-39"
                 id="use106" />
              <use
                 x="127.24609375"
                 xlink:href="#DejaVuSans-36"
                 id="use108" />
              <use
                 x="190.869140625"
                 xlink:href="#DejaVuSans-31"
                 id="use110" />
            </g>
          </g>
        </g>
        <g
           id="xtick_2">
          <g
             id="line2d_7">
            <g
               id="g114">
              <use
                 style="stroke:#000000;stroke-width:0.5;"
                 x="309.204"
                 xlink:href="#m366b3b2fe0"
                 y="603.45"
                 id="use116" />
            </g>
          </g>
          <g
             id="line2d_8">
            <g
               id="g119">
              <use
                 style="stroke:#000000;stroke-width:0.5;"
                 x="309.204"
                 xlink:href="#m2ef3d5c002"
                 y="67.05"
                 id="use121" />
            </g>
          </g>
          <g
             id="text_2">
            <!-- 1971 -->
            <defs
               id="defs124">
              <path
                 d="M 8.203125 72.90625  L 55.078125 72.90625  L 55.078125 68.703125  L 28.609375 0  L 18.3125 0  L 43.21875 64.59375  L 8.203125 64.59375  z "
                 id="DejaVuSans-37" />
            </defs>
            <g
               transform="translate(271.029 630.2453125)scale(0.3 -0.3)"
               id="g127">
              <use
                 xlink:href="#DejaVuSans-31"
                 id="use129" />
              <use
                 x="63.623046875"
                 xlink:href="#DejaVuSans-39"
                 id="use131" />
              <use
                 x="127.24609375"
                 xlink:href="#DejaVuSans-37"
                 id="use133" />
              <use
                 x="190.869140625"
                 xlink:href="#DejaVuSans-31"
                 id="use135" />
            </g>
          </g>
        </g>
        <g
           id="xtick_3">
          <g
             id="line2d_9">
            <g
               id="g139">
              <use
                 style="stroke:#000000;stroke-width:0.5;"
                 x="480.3705"
                 xlink:href="#m366b3b2fe0"
                 y="603.45"
                 id="use141" />
            </g>
          </g>
          <g
             id="line2d_10">
            <g
               id="g144">
              <use
                 style="stroke:#000000;stroke-width:0.5;"
                 x="480.3705"
                 xlink:href="#m2ef3d5c002"
                 y="67.05"
                 id="use146" />
            </g>
          </g>
          <g
             id="text_3">
            <!-- 1981 -->
            <defs
               id="defs149">
              <path
                 d="M 31.78125 34.625  Q 24.75 34.625 20.71875 30.859375  Q 16.703125 27.09375 16.703125 20.515625  Q 16.703125 13.921875 20.71875 10.15625  Q 24.75 6.390625 31.78125 6.390625  Q 38.8125 6.390625 42.859375 10.171875  Q 46.921875 13.96875 46.921875 20.515625  Q 46.921875 27.09375 42.890625 30.859375  Q 38.875 34.625 31.78125 34.625  M 21.921875 38.8125  Q 15.578125 40.375 12.03125 44.71875  Q 8.5 49.078125 8.5 55.328125  Q 8.5 64.0625 14.71875 69.140625  Q 20.953125 74.21875 31.78125 74.21875  Q 42.671875 74.21875 48.875 69.140625  Q 55.078125 64.0625 55.078125 55.328125  Q 55.078125 49.078125 51.53125 44.71875  Q 48 40.375 41.703125 38.8125  Q 48.828125 37.15625 52.796875 32.3125  Q 56.78125 27.484375 56.78125 20.515625  Q 56.78125 9.90625 50.3125 4.234375  Q 43.84375 -1.421875 31.78125 -1.421875  Q 19.734375 -1.421875 13.25 4.234375  Q 6.78125 9.90625 6.78125 20.515625  Q 6.78125 27.484375 10.78125 32.3125  Q 14.796875 37.15625 21.921875 38.8125  M 18.3125 54.390625  Q 18.3125 48.734375 21.84375 45.5625  Q 25.390625 42.390625 31.78125 42.390625  Q 38.140625 42.390625 41.71875 45.5625  Q 45.3125 48.734375 45.3125 54.390625  Q 45.3125 60.0625 41.71875 63.234375  Q 38.140625 66.40625 31.78125 66.40625  Q 25.390625 66.40625 21.84375 63.234375  Q 18.3125 60.0625 18.3125 54.390625  "
                 id="DejaVuSans-38" />
            </defs>
            <g
               transform="translate(442.1955 630.2453125)scale(0.3 -0.3)"
               id="g152">
              <use
                 xlink:href="#DejaVuSans-31"
                 id="use154" />
              <use
                 x="63.623046875"
                 xlink:href="#DejaVuSans-39"
                 id="use156" />
              <use
                 x="127.24609375"
                 xlink:href="#DejaVuSans-38"
                 id="use158" />
              <use
                 x="190.869140625"
                 xlink:href="#DejaVuSans-31"
                 id="use160" />
            </g>
          </g>
        </g>
        <g
           id="xtick_4">
          <g
             id="line2d_11">
            <g
               id="g164">
              <use
                 style="stroke:#000000;stroke-width:0.5;"
                 x="651.537"
                 xlink:href="#m366b3b2fe0"
                 y="603.45"
                 id="use166" />
            </g>
          </g>
          <g
             id="line2d_12">
            <g
               id="g169">
              <use
                 style="stroke:#000000;stroke-width:0.5;"
                 x="651.537"
                 xlink:href="#m2ef3d5c002"
                 y="67.05"
                 id="use171" />
            </g>
          </g>
          <g
             id="text_4">
            <!-- 1991 -->
            <g
               transform="translate(613.362 630.2453125)scale(0.3 -0.3)"
               id="g174">
              <use
                 xlink:href="#DejaVuSans-31"
                 id="use176" />
              <use
                 x="63.623046875"
                 xlink:href="#DejaVuSans-39"
                 id="use178" />
              <use
                 x="127.24609375"
                 xlink:href="#DejaVuSans-39"
                 id="use180" />
              <use
                 x="190.869140625"
                 xlink:href="#DejaVuSans-31"
                 id="use182" />
            </g>
          </g>
        </g>
        <g
           id="xtick_5">
          <g
             id="line2d_13">
            <g
               id="g186">
              <use
                 style="stroke:#000000;stroke-width:0.5;"
                 x="822.7035"
                 xlink:href="#m366b3b2fe0"
                 y="603.45"
                 id="use188" />
            </g>
          </g>
          <g
             id="line2d_14">
            <g
               id="g191">
              <use
                 style="stroke:#000000;stroke-width:0.5;"
                 x="822.7035"
                 xlink:href="#m2ef3d5c002"
                 y="67.05"
                 id="use193" />
            </g>
          </g>
          <g
             id="text_5">
            <!-- 2001 -->
            <defs
               id="defs196">
              <path
                 d="M 31.78125 66.40625  Q 24.171875 66.40625 20.328125 58.90625  Q 16.5 51.421875 16.5 36.375  Q 16.5 21.390625 20.328125 13.890625  Q 24.171875 6.390625 31.78125 6.390625  Q 39.453125 6.390625 43.28125 13.890625  Q 47.125 21.390625 47.125 36.375  Q 47.125 51.421875 43.28125 58.90625  Q 39.453125 66.40625 31.78125 66.40625  M 31.78125 74.21875  Q 44.046875 74.21875 50.515625 64.515625  Q 56.984375 54.828125 56.984375 36.375  Q 56.984375 17.96875 50.515625 8.265625  Q 44.046875 -1.421875 31.78125 -1.421875  Q 19.53125 -1.421875 13.0625 8.265625  Q 6.59375 17.96875 6.59375 36.375  Q 6.59375 54.828125 13.0625 64.515625  Q 19.53125 74.21875 31.78125 74.21875  "
                 id="DejaVuSans-30" />
              <path
                 d="M 19.1875 8.296875  L 53.609375 8.296875  L 53.609375 0  L 7.328125 0  L 7.328125 8.296875  Q 12.9375 14.109375 22.625 23.890625  Q 32.328125 33.6875 34.8125 36.53125  Q 39.546875 41.84375 41.421875 45.53125  Q 43.3125 49.21875 43.3125 52.78125  Q 43.3125 58.59375 39.234375 62.25  Q 35.15625 65.921875 28.609375 65.921875  Q 23.96875 65.921875 18.8125 64.3125  Q 13.671875 62.703125 7.8125 59.421875  L 7.8125 69.390625  Q 13.765625 71.78125 18.9375 73  Q 24.125 74.21875 28.421875 74.21875  Q 39.75 74.21875 46.484375 68.546875  Q 53.21875 62.890625 53.21875 53.421875  Q 53.21875 48.921875 51.53125 44.890625  Q 49.859375 40.875 45.40625 35.40625  Q 44.1875 33.984375 37.640625 27.21875  Q 31.109375 20.453125 19.1875 8.296875  "
                 id="DejaVuSans-32" />
            </defs>
            <g
               transform="translate(784.5285 630.2453125)scale(0.3 -0.3)"
               id="g200">
              <use
                 xlink:href="#DejaVuSans-32"
                 id="use202" />
              <use
                 x="63.623046875"
                 xlink:href="#DejaVuSans-30"
                 id="use204" />
              <use
                 x="127.24609375"
                 xlink:href="#DejaVuSans-30"
                 id="use206" />
              <use
                 x="190.869140625"
                 xlink:href="#DejaVuSans-31"
                 id="use208" />
            </g>
          </g>
        </g>
        <g
           id="xtick_6">
          <g
             id="line2d_15">
            <g
               id="g212">
              <use
                 style="stroke:#000000;stroke-width:0.5;"
                 x="993.87"
                 xlink:href="#m366b3b2fe0"
                 y="603.45"
                 id="use214" />
            </g>
          </g>
          <g
             id="line2d_16">
            <g
               id="g217">
              <use
                 style="stroke:#000000;stroke-width:0.5;"
                 x="993.87"
                 xlink:href="#m2ef3d5c002"
                 y="67.05"
                 id="use219" />
            </g>
          </g>
          <g
             id="text_6">
            <!-- 2011 -->
            <g
               transform="translate(955.695 630.2453125)scale(0.3 -0.3)"
               id="g222">
              <use
                 xlink:href="#DejaVuSans-32"
                 id="use224" />
              <use
                 x="63.623046875"
                 xlink:href="#DejaVuSans-30"
                 id="use226" />
              <use
                 x="127.24609375"
                 xlink:href="#DejaVuSans-31"
                 id="use228" />
              <use
                 x="190.869140625"
                 xlink:href="#DejaVuSans-31"
                 id="use230" />
            </g>
          </g>
        </g>
        <g
           id="text_7">
          <!-- Year -->
          <defs
             id="defs233">
            <path
               d="M 32.90625 24.609375  Q 27.4375 24.609375 24.671875 22.75  Q 21.921875 20.90625 21.921875 17.28125  Q 21.921875 13.96875 24.140625 12.078125  Q 26.375 10.203125 30.328125 10.203125  Q 35.25 10.203125 38.625 13.734375  Q 42 17.28125 42 22.609375  L 42 24.609375  z M 59.625 31.203125  L 59.625 0  L 42 0  L 42 8.109375  Q 38.484375 3.125 34.078125 0.84375  Q 29.6875 -1.421875 23.390625 -1.421875  Q 14.890625 -1.421875 9.59375 3.53125  Q 4.296875 8.5 4.296875 16.40625  Q 4.296875 26.03125 10.90625 30.515625  Q 17.53125 35.015625 31.6875 35.015625  L 42 35.015625  L 42 36.375  Q 42 40.53125 38.71875 42.453125  Q 35.453125 44.390625 28.515625 44.390625  Q 22.90625 44.390625 18.0625 43.265625  Q 13.234375 42.140625 9.078125 39.890625  L 9.078125 53.21875  Q 14.703125 54.59375 20.359375 55.296875  Q 26.03125 56 31.6875 56  Q 46.484375 56 53.046875 50.171875  Q 59.625 44.34375 59.625 31.203125  "
               id="DejaVuSans-Bold-61" />
            <path
               d="M 49.03125 39.796875  Q 46.734375 40.875 44.453125 41.375  Q 42.1875 41.890625 39.890625 41.890625  Q 33.15625 41.890625 29.515625 37.5625  Q 25.875 33.25 25.875 25.203125  L 25.875 0  L 8.40625 0  L 8.40625 54.6875  L 25.875 54.6875  L 25.875 45.703125  Q 29.25 51.078125 33.609375 53.53125  Q 37.984375 56 44.09375 56  Q 44.96875 56 45.984375 55.921875  Q 47.015625 55.859375 48.96875 55.609375  z "
               id="DejaVuSans-Bold-72" />
            <path
               d="M 62.984375 27.484375  L 62.984375 22.515625  L 22.125 22.515625  Q 22.75 16.359375 26.5625 13.28125  Q 30.375 10.203125 37.203125 10.203125  Q 42.71875 10.203125 48.5 11.84375  Q 54.296875 13.484375 60.40625 16.796875  L 60.40625 3.328125  Q 54.203125 0.984375 48 -0.21875  Q 41.796875 -1.421875 35.59375 -1.421875  Q 20.75 -1.421875 12.515625 6.125  Q 4.296875 13.671875 4.296875 27.296875  Q 4.296875 40.671875 12.375 48.328125  Q 20.453125 56 34.625 56  Q 47.515625 56 55.25 48.234375  Q 62.984375 40.484375 62.984375 27.484375  M 45.015625 33.296875  Q 45.015625 38.28125 42.109375 41.328125  Q 39.203125 44.390625 34.515625 44.390625  Q 29.4375 44.390625 26.265625 41.53125  Q 23.09375 38.671875 22.3125 33.296875  z "
               id="DejaVuSans-Bold-65" />
            <path
               d="M -0.984375 72.90625  L 19.578125 72.90625  L 36.1875 46.921875  L 52.78125 72.90625  L 73.390625 72.90625  L 45.609375 30.71875  L 45.609375 0  L 26.8125 0  L 26.8125 30.71875  z "
               id="DejaVuSans-Bold-59" />
          </defs>
          <g
             transform="translate(527.42015625 664.2796875)scale(0.3 -0.3)"
             id="g239">
            <use
               xlink:href="#DejaVuSans-Bold-59"
               id="use241" />
            <use
               x="72.271484375"
               xlink:href="#DejaVuSans-Bold-65"
               id="use243" />
            <use
               x="140.09375"
               xlink:href="#DejaVuSans-Bold-61"
               id="use245" />
            <use
               x="207.57421875"
               xlink:href="#DejaVuSans-Bold-72"
               id="use247" />
          </g>
        </g>
      </g>
      <g
         id="matplotlib.axis_2">
        <g
           id="ytick_1">
          <g
             id="line2d_17">
            <defs
               id="defs252">
              <path
                 d="M 0 0  L 4 0  "
                 id="m3792435e67"
                 style="stroke:#000000;stroke-width:0.5;" />
            </defs>
            <g
               id="g255">
              <use
                 style="stroke:#000000;stroke-width:0.5;"
                 x="138.0375"
                 xlink:href="#m3792435e67"
                 y="603.45"
                 id="use257" />
            </g>
          </g>
          <g
             id="line2d_18">
            <defs
               id="defs260">
              <path
                 d="M 0 0  L -4 0  "
                 id="m4c14009b67"
                 style="stroke:#000000;stroke-width:0.5;" />
            </defs>
            <g
               id="g263">
              <use
                 style="stroke:#000000;stroke-width:0.5;"
                 x="993.87"
                 xlink:href="#m4c14009b67"
                 y="603.45"
                 id="use265" />
            </g>
          </g>
          <g
             id="text_8"
             transform="translate(-1.6,-6.4)"
             style="stroke-linecap:butt;stroke-linejoin:round;stroke-miterlimit:100000">
            <!-- 0 -->
            <g
               transform="matrix(0.3,0,0,-0.3,114.95,611.72812)"
               id="g268"
               style="stroke-linecap:butt;stroke-linejoin:round;stroke-miterlimit:100000">
              <use
                 xlink:href="#DejaVuSans-30"
                 id="use270"
                 style="stroke-linecap:butt;stroke-linejoin:round;stroke-miterlimit:100000"
                 x="0"
                 y="0"
                 width="1104"
                 height="670" />
            </g>
          </g>
        </g>
        <g
           id="ytick_2">
          <g
             id="line2d_19">
            <g
               id="g274">
              <use
                 style="stroke:#000000;stroke-width:0.5;"
                 x="138.0375"
                 xlink:href="#m3792435e67"
                 y="496.17"
                 id="use276" />
            </g>
          </g>
          <g
             id="line2d_20">
            <g
               id="g279">
              <use
                 style="stroke:#000000;stroke-width:0.5;"
                 x="993.87"
                 xlink:href="#m4c14009b67"
                 y="496.17"
                 id="use281" />
            </g>
          </g>
          <g
             id="text_9">
            <!-- 20 -->
            <g
               transform="translate(95.8625 504.448125)scale(0.3 -0.3)"
               id="g284">
              <use
                 xlink:href="#DejaVuSans-32"
                 id="use286" />
              <use
                 x="63.623046875"
                 xlink:href="#DejaVuSans-30"
                 id="use288" />
            </g>
          </g>
        </g>
        <g
           id="ytick_3">
          <g
             id="line2d_21">
            <g
               id="g292">
              <use
                 style="stroke:#000000;stroke-width:0.5;"
                 x="138.0375"
                 xlink:href="#m3792435e67"
                 y="388.89"
                 id="use294" />
            </g>
          </g>
          <g
             id="line2d_22">
            <g
               id="g297">
              <use
                 style="stroke:#000000;stroke-width:0.5;"
                 x="993.87"
                 xlink:href="#m4c14009b67"
                 y="388.89"
                 id="use299" />
            </g>
          </g>
          <g
             id="text_10">
            <!-- 40 -->
            <defs
               id="defs302">
              <path
                 d="M 37.796875 64.3125  L 12.890625 25.390625  L 37.796875 25.390625  z M 35.203125 72.90625  L 47.609375 72.90625  L 47.609375 25.390625  L 58.015625 25.390625  L 58.015625 17.1875  L 47.609375 17.1875  L 47.609375 0  L 37.796875 0  L 37.796875 17.1875  L 4.890625 17.1875  L 4.890625 26.703125  z "
                 id="DejaVuSans-34" />
            </defs>
            <g
               transform="translate(95.8625 397.168125)scale(0.3 -0.3)"
               id="g305">
              <use
                 xlink:href="#DejaVuSans-34"
                 id="use307" />
              <use
                 x="63.623046875"
                 xlink:href="#DejaVuSans-30"
                 id="use309" />
            </g>
          </g>
        </g>
        <g
           id="ytick_4">
          <g
             id="line2d_23">
            <g
               id="g313">
              <use
                 style="stroke:#000000;stroke-width:0.5;"
                 x="138.0375"
                 xlink:href="#m3792435e67"
                 y="281.61"
                 id="use315" />
            </g>
          </g>
          <g
             id="line2d_24">
            <g
               id="g318">
              <use
                 style="stroke:#000000;stroke-width:0.5;"
                 x="993.87"
                 xlink:href="#m4c14009b67"
                 y="281.61"
                 id="use320" />
            </g>
          </g>
          <g
             id="text_11">
            <!-- 60 -->
            <g
               transform="translate(95.8625 289.888125)scale(0.3 -0.3)"
               id="g323">
              <use
                 xlink:href="#DejaVuSans-36"
                 id="use325" />
              <use
                 x="63.623046875"
                 xlink:href="#DejaVuSans-30"
                 id="use327" />
            </g>
          </g>
        </g>
        <g
           id="ytick_5">
          <g
             id="line2d_25">
            <g
               id="g331">
              <use
                 style="stroke:#000000;stroke-width:0.5;"
                 x="138.0375"
                 xlink:href="#m3792435e67"
                 y="174.33"
                 id="use333" />
            </g>
          </g>
          <g
             id="line2d_26">
            <g
               id="g336">
              <use
                 style="stroke:#000000;stroke-width:0.5;"
                 x="993.87"
                 xlink:href="#m4c14009b67"
                 y="174.33"
                 id="use338" />
            </g>
          </g>
          <g
             id="text_12">
            <!-- 80 -->
            <g
               transform="translate(95.8625 182.608125)scale(0.3 -0.3)"
               id="g341">
              <use
                 xlink:href="#DejaVuSans-38"
                 id="use343" />
              <use
                 x="63.623046875"
                 xlink:href="#DejaVuSans-30"
                 id="use345" />
            </g>
          </g>
        </g>
        <g
           id="ytick_6">
          <g
             id="line2d_27">
            <g
               id="g349">
              <use
                 style="stroke:#000000;stroke-width:0.5;"
                 x="138.0375"
                 xlink:href="#m3792435e67"
                 y="67.05"
                 id="use351" />
            </g>
          </g>
          <g
             id="line2d_28">
            <g
               id="g354">
              <use
                 style="stroke:#000000;stroke-width:0.5;"
                 x="993.87"
                 xlink:href="#m4c14009b67"
                 y="67.05"
                 id="use356" />
            </g>
          </g>
          <g
             id="text_13">
            <!-- 100 -->
            <g
               transform="translate(76.775 75.328125)scale(0.3 -0.3)"
               id="g359">
              <use
                 xlink:href="#DejaVuSans-31"
                 id="use361" />
              <use
                 x="63.623046875"
                 xlink:href="#DejaVuSans-30"
                 id="use363" />
              <use
                 x="127.24609375"
                 xlink:href="#DejaVuSans-30"
                 id="use365" />
            </g>
          </g>
        </g>
        <g
           id="text_14">
          <!-- Mass (Mt) -->
          <defs
             id="defs368">
            <path
               d="M 51.125 52.984375  L 51.125 39.703125  Q 45.515625 42.046875 40.28125 43.21875  Q 35.0625 44.390625 30.421875 44.390625  Q 25.4375 44.390625 23.015625 43.140625  Q 20.609375 41.890625 20.609375 39.3125  Q 20.609375 37.203125 22.4375 36.078125  Q 24.265625 34.96875 29 34.421875  L 32.078125 33.984375  Q 45.515625 32.28125 50.140625 28.375  Q 54.78125 24.46875 54.78125 16.109375  Q 54.78125 7.375 48.328125 2.96875  Q 41.890625 -1.421875 29.109375 -1.421875  Q 23.6875 -1.421875 17.890625 -0.5625  Q 12.109375 0.296875 6 2  L 6 15.28125  Q 11.234375 12.75 16.71875 11.46875  Q 22.21875 10.203125 27.875 10.203125  Q 33.015625 10.203125 35.59375 11.609375  Q 38.1875 13.03125 38.1875 15.828125  Q 38.1875 18.171875 36.40625 19.3125  Q 34.625 20.453125 29.296875 21.09375  L 26.21875 21.484375  Q 14.546875 22.953125 9.859375 26.90625  Q 5.171875 30.859375 5.171875 38.921875  Q 5.171875 47.609375 11.125 51.796875  Q 17.09375 56 29.390625 56  Q 34.234375 56 39.546875 55.265625  Q 44.875 54.546875 51.125 52.984375  "
               id="DejaVuSans-Bold-73" />
            <path
               d="M 8.015625 -13.1875  Q 14.265625 -1.5625 17.390625 9.515625  Q 20.515625 20.609375 20.515625 31.390625  Q 20.515625 42.1875 17.390625 53.25  Q 14.265625 64.3125 8.015625 75.875  L 22.515625 75.875  Q 29.9375 63.921875 33.515625 52.953125  Q 37.109375 42 37.109375 31.296875  Q 37.109375 20.609375 33.546875 9.734375  Q 29.984375 -1.125 22.515625 -13.1875  z "
               id="DejaVuSans-Bold-29" />
            <path
               d="M 37.703125 -13.1875  L 23.1875 -13.1875  Q 15.71875 -1.125 12.15625 9.734375  Q 8.59375 20.609375 8.59375 31.296875  Q 8.59375 42 12.171875 52.953125  Q 15.765625 63.921875 23.1875 75.875  L 37.703125 75.875  Q 31.453125 64.3125 28.328125 53.25  Q 25.203125 42.1875 25.203125 31.390625  Q 25.203125 20.609375 28.296875 9.515625  Q 31.390625 -1.5625 37.703125 -13.1875  "
               id="DejaVuSans-Bold-28" />
            <path
               d="M 27.484375 70.21875  L 27.484375 54.6875  L 45.515625 54.6875  L 45.515625 42.1875  L 27.484375 42.1875  L 27.484375 19  Q 27.484375 15.1875 29 13.84375  Q 30.515625 12.5 35.015625 12.5  L 44 12.5  L 44 0  L 29 0  Q 18.65625 0 14.328125 4.3125  Q 10.015625 8.640625 10.015625 19  L 10.015625 42.1875  L 1.3125 42.1875  L 1.3125 54.6875  L 10.015625 54.6875  L 10.015625 70.21875  z "
               id="DejaVuSans-Bold-74" />
            <path
               id="DejaVuSans-Bold-20" />
            <path
               d="M 9.1875 72.90625  L 33.109375 72.90625  L 49.703125 33.890625  L 66.40625 72.90625  L 90.28125 72.90625  L 90.28125 0  L 72.515625 0  L 72.515625 53.328125  L 55.71875 14.015625  L 43.796875 14.015625  L 27 53.328125  L 27 0  L 9.1875 0  z "
               id="DejaVuSans-Bold-4d" />
          </defs>
          <g
             transform="translate(65.5359375 419.184375)rotate(-90.0)scale(0.3 -0.3)"
             id="g376">
            <use
               xlink:href="#DejaVuSans-Bold-4d"
               id="use378" />
            <use
               x="99.51171875"
               xlink:href="#DejaVuSans-Bold-61"
               id="use380" />
            <use
               x="166.9921875"
               xlink:href="#DejaVuSans-Bold-73"
               id="use382" />
            <use
               x="226.513671875"
               xlink:href="#DejaVuSans-Bold-73"
               id="use384" />
            <use
               x="286.03515625"
               xlink:href="#DejaVuSans-Bold-20"
               id="use386" />
            <use
               x="320.849609375"
               xlink:href="#DejaVuSans-Bold-28"
               id="use388" />
            <use
               x="366.552734375"
               xlink:href="#DejaVuSans-Bold-4d"
               id="use390" />
            <use
               x="466.064453125"
               xlink:href="#DejaVuSans-Bold-74"
               id="use392" />
            <use
               x="513.8671875"
               xlink:href="#DejaVuSans-Bold-29"
               id="use394" />
          </g>
        </g>
      </g>
      <g
         id="text_15">
        <!-- RuBisCO mass -->
        <defs
           id="defs397">
          <path
             d="M 35.890625 40.578125  Q 41.796875 40.578125 44.359375 42.765625  Q 46.921875 44.96875 46.921875 50  Q 46.921875 54.984375 44.359375 57.125  Q 41.796875 59.28125 35.890625 59.28125  L 27.984375 59.28125  L 27.984375 40.578125  z M 27.984375 27.59375  L 27.984375 0  L 9.1875 0  L 9.1875 72.90625  L 37.890625 72.90625  Q 52.296875 72.90625 59 68.0625  Q 65.71875 63.234375 65.71875 52.78125  Q 65.71875 45.5625 62.21875 40.921875  Q 58.734375 36.28125 51.703125 34.078125  Q 55.5625 33.203125 58.609375 30.09375  Q 61.671875 27 64.796875 20.703125  L 75 0  L 54.984375 0  L 46.09375 18.109375  Q 43.40625 23.578125 40.640625 25.578125  Q 37.890625 27.59375 33.296875 27.59375  z "
             id="DejaVuSans-Bold-52" />
          <path
             d="M 7.8125 21.296875  L 7.8125 54.6875  L 25.390625 54.6875  L 25.390625 49.21875  Q 25.390625 44.78125 25.34375 38.0625  Q 25.296875 31.34375 25.296875 29.109375  Q 25.296875 22.515625 25.640625 19.609375  Q 25.984375 16.703125 26.8125 15.375  Q 27.875 13.671875 29.609375 12.734375  Q 31.34375 11.8125 33.59375 11.8125  Q 39.0625 11.8125 42.1875 16.015625  Q 45.3125 20.21875 45.3125 27.6875  L 45.3125 54.6875  L 62.796875 54.6875  L 62.796875 0  L 45.3125 0  L 45.3125 7.90625  Q 41.359375 3.125 36.9375 0.84375  Q 32.515625 -1.421875 27.203125 -1.421875  Q 17.71875 -1.421875 12.765625 4.390625  Q 7.8125 10.203125 7.8125 21.296875  "
             id="DejaVuSans-Bold-75" />
          <path
             d="M 8.40625 54.6875  L 25.875 54.6875  L 25.875 0  L 8.40625 0  z M 8.40625 75.984375  L 25.875 75.984375  L 25.875 61.71875  L 8.40625 61.71875  z "
             id="DejaVuSans-Bold-69" />
          <path
             d="M 38.375 44.671875  Q 42.828125 44.671875 45.109375 46.625  Q 47.40625 48.578125 47.40625 52.390625  Q 47.40625 56.15625 45.109375 58.125  Q 42.828125 60.109375 38.375 60.109375  L 27.984375 60.109375  L 27.984375 44.671875  z M 39.015625 12.796875  Q 44.671875 12.796875 47.53125 15.1875  Q 50.390625 17.578125 50.390625 22.40625  Q 50.390625 27.15625 47.5625 29.515625  Q 44.734375 31.890625 39.015625 31.890625  L 27.984375 31.890625  L 27.984375 12.796875  z M 56.5 39.015625  Q 62.546875 37.25 65.859375 32.515625  Q 69.1875 27.78125 69.1875 20.90625  Q 69.1875 10.359375 62.0625 5.171875  Q 54.9375 0 40.375 0  L 9.1875 0  L 9.1875 72.90625  L 37.40625 72.90625  Q 52.59375 72.90625 59.40625 68.3125  Q 66.21875 63.71875 66.21875 53.609375  Q 66.21875 48.296875 63.71875 44.5625  Q 61.234375 40.828125 56.5 39.015625  "
             id="DejaVuSans-Bold-42" />
          <path
             d="M 67 4  Q 61.8125 1.3125 56.203125 -0.046875  Q 50.59375 -1.421875 44.484375 -1.421875  Q 26.265625 -1.421875 15.625 8.765625  Q 4.984375 18.953125 4.984375 36.375  Q 4.984375 53.859375 15.625 64.03125  Q 26.265625 74.21875 44.484375 74.21875  Q 50.59375 74.21875 56.203125 72.84375  Q 61.8125 71.484375 67 68.796875  L 67 53.71875  Q 61.765625 57.28125 56.6875 58.9375  Q 51.609375 60.59375 46 60.59375  Q 35.9375 60.59375 30.171875 54.140625  Q 24.421875 47.703125 24.421875 36.375  Q 24.421875 25.09375 30.171875 18.640625  Q 35.9375 12.203125 46 12.203125  Q 51.609375 12.203125 56.6875 13.859375  Q 61.765625 15.53125 67 19.09375  z "
             id="DejaVuSans-Bold-43" />
          <path
             d="M 59.078125 45.609375  Q 62.40625 50.6875 66.96875 53.34375  Q 71.53125 56 77 56  Q 86.421875 56 91.359375 50.1875  Q 96.296875 44.390625 96.296875 33.296875  L 96.296875 0  L 78.71875 0  L 78.71875 28.515625  Q 78.765625 29.15625 78.78125 29.828125  Q 78.8125 30.515625 78.8125 31.78125  Q 78.8125 37.59375 77.09375 40.203125  Q 75.390625 42.828125 71.578125 42.828125  Q 66.609375 42.828125 63.890625 38.71875  Q 61.1875 34.625 61.078125 26.859375  L 61.078125 0  L 43.5 0  L 43.5 28.515625  Q 43.5 37.59375 41.9375 40.203125  Q 40.375 42.828125 36.375 42.828125  Q 31.34375 42.828125 28.609375 38.703125  Q 25.875 34.578125 25.875 26.90625  L 25.875 0  L 8.296875 0  L 8.296875 54.6875  L 25.875 54.6875  L 25.875 46.6875  Q 29.109375 51.3125 33.28125 53.65625  Q 37.453125 56 42.484375 56  Q 48.140625 56 52.484375 53.265625  Q 56.84375 50.53125 59.078125 45.609375  "
             id="DejaVuSans-Bold-6d" />
          <path
             d="M 42.484375 60.59375  Q 33.890625 60.59375 29.15625 54.25  Q 24.421875 47.90625 24.421875 36.375  Q 24.421875 24.90625 29.15625 18.546875  Q 33.890625 12.203125 42.484375 12.203125  Q 51.125 12.203125 55.859375 18.546875  Q 60.59375 24.90625 60.59375 36.375  Q 60.59375 47.90625 55.859375 54.25  Q 51.125 60.59375 42.484375 60.59375  M 42.484375 74.21875  Q 60.0625 74.21875 70.015625 64.15625  Q 79.984375 54.109375 79.984375 36.375  Q 79.984375 18.703125 70.015625 8.640625  Q 60.0625 -1.421875 42.484375 -1.421875  Q 24.953125 -1.421875 14.96875 8.640625  Q 4.984375 18.703125 4.984375 36.375  Q 4.984375 54.109375 14.96875 64.15625  Q 24.953125 74.21875 42.484375 74.21875  "
             id="DejaVuSans-Bold-4f" />
        </defs>
        <g
           style="fill:#393933;"
           transform="translate(309.204 187.74)scale(0.1728 -0.1728)"
           id="g406">
          <use
             xlink:href="#DejaVuSans-Bold-52"
             id="use408" />
          <use
             x="77.001953125"
             xlink:href="#DejaVuSans-Bold-75"
             id="use410" />
          <use
             x="148.193359375"
             xlink:href="#DejaVuSans-Bold-42"
             id="use412" />
          <use
             x="224.4140625"
             xlink:href="#DejaVuSans-Bold-69"
             id="use414" />
          <use
             x="258.69140625"
             xlink:href="#DejaVuSans-Bold-73"
             id="use416" />
          <use
             x="318.212890625"
             xlink:href="#DejaVuSans-Bold-43"
             id="use418" />
          <use
             x="391.6015625"
             xlink:href="#DejaVuSans-Bold-4f"
             id="use420" />
          <use
             x="476.611328125"
             xlink:href="#DejaVuSans-Bold-20"
             id="use422" />
          <use
             x="511.42578125"
             xlink:href="#DejaVuSans-Bold-6d"
             id="use424" />
          <use
             x="615.625"
             xlink:href="#DejaVuSans-Bold-61"
             id="use426" />
          <use
             x="683.10546875"
             xlink:href="#DejaVuSans-Bold-73"
             id="use428" />
          <use
             x="742.626953125"
             xlink:href="#DejaVuSans-Bold-73"
             id="use430" />
        </g>
      </g>
      <g
         id="legend_1">
        <g
           id="patch_7">
          <path
             d="M 145.2375 163.116  L 313.25175 163.116  L 313.25175 74.25  L 145.2375 74.25  z "
             style="fill:#ffffff;stroke:#000000;stroke-linejoin:miter;"
             id="path434" />
        </g>
        <g
           id="patch_8">
          <path
             d="M 150.9975 90.95175  L 179.7975 90.95175  L 179.7975 80.87175  L 150.9975 80.87175  z "
             style="fill:#440154;stroke:#000000;stroke-linejoin:miter;"
             id="path437" />
        </g>
        <g
           id="text_16">
          <!-- Wild Megafauna -->
          <defs
             id="defs440">
            <path
               d="M 9.8125 72.90625  L 24.515625 72.90625  L 43.109375 23.296875  L 61.8125 72.90625  L 76.515625 72.90625  L 76.515625 0  L 66.890625 0  L 66.890625 64.015625  L 48.09375 14.015625  L 38.1875 14.015625  L 19.390625 64.015625  L 19.390625 0  L 9.8125 0  z "
               id="DejaVuSans-4d" />
            <path
               d="M 54.890625 33.015625  L 54.890625 0  L 45.90625 0  L 45.90625 32.71875  Q 45.90625 40.484375 42.875 44.328125  Q 39.84375 48.1875 33.796875 48.1875  Q 26.515625 48.1875 22.3125 43.546875  Q 18.109375 38.921875 18.109375 30.90625  L 18.109375 0  L 9.078125 0  L 9.078125 54.6875  L 18.109375 54.6875  L 18.109375 46.1875  Q 21.34375 51.125 25.703125 53.5625  Q 30.078125 56 35.796875 56  Q 45.21875 56 50.046875 50.171875  Q 54.890625 44.34375 54.890625 33.015625  "
               id="DejaVuSans-6e" />
            <path
               d="M 9.421875 75.984375  L 18.40625 75.984375  L 18.40625 0  L 9.421875 0  z "
               id="DejaVuSans-6c" />
            <path
               d="M 8.5 21.578125  L 8.5 54.6875  L 17.484375 54.6875  L 17.484375 21.921875  Q 17.484375 14.15625 20.5 10.265625  Q 23.53125 6.390625 29.59375 6.390625  Q 36.859375 6.390625 41.078125 11.03125  Q 45.3125 15.671875 45.3125 23.6875  L 45.3125 54.6875  L 54.296875 54.6875  L 54.296875 0  L 45.3125 0  L 45.3125 8.40625  Q 42.046875 3.421875 37.71875 1  Q 33.40625 -1.421875 27.6875 -1.421875  Q 18.265625 -1.421875 13.375 4.4375  Q 8.5 10.296875 8.5 21.578125  M 31.109375 56  z "
               id="DejaVuSans-75" />
            <path
               id="DejaVuSans-20" />
            <path
               d="M 9.421875 54.6875  L 18.40625 54.6875  L 18.40625 0  L 9.421875 0  z M 9.421875 75.984375  L 18.40625 75.984375  L 18.40625 64.59375  L 9.421875 64.59375  z "
               id="DejaVuSans-69" />
            <path
               d="M 37.109375 75.984375  L 37.109375 68.5  L 28.515625 68.5  Q 23.6875 68.5 21.796875 66.546875  Q 19.921875 64.59375 19.921875 59.515625  L 19.921875 54.6875  L 34.71875 54.6875  L 34.71875 47.703125  L 19.921875 47.703125  L 19.921875 0  L 10.890625 0  L 10.890625 47.703125  L 2.296875 47.703125  L 2.296875 54.6875  L 10.890625 54.6875  L 10.890625 58.5  Q 10.890625 67.625 15.140625 71.796875  Q 19.390625 75.984375 28.609375 75.984375  z "
               id="DejaVuSans-66" />
            <path
               d="M 45.40625 27.984375  Q 45.40625 37.75 41.375 43.109375  Q 37.359375 48.484375 30.078125 48.484375  Q 22.859375 48.484375 18.828125 43.109375  Q 14.796875 37.75 14.796875 27.984375  Q 14.796875 18.265625 18.828125 12.890625  Q 22.859375 7.515625 30.078125 7.515625  Q 37.359375 7.515625 41.375 12.890625  Q 45.40625 18.265625 45.40625 27.984375  M 54.390625 6.78125  Q 54.390625 -7.171875 48.1875 -13.984375  Q 42 -20.796875 29.203125 -20.796875  Q 24.46875 -20.796875 20.265625 -20.09375  Q 16.0625 -19.390625 12.109375 -17.921875  L 12.109375 -9.1875  Q 16.0625 -11.328125 19.921875 -12.34375  Q 23.78125 -13.375 27.78125 -13.375  Q 36.625 -13.375 41.015625 -8.765625  Q 45.40625 -4.15625 45.40625 5.171875  L 45.40625 9.625  Q 42.625 4.78125 38.28125 2.390625  Q 33.9375 0 27.875 0  Q 17.828125 0 11.671875 7.65625  Q 5.515625 15.328125 5.515625 27.984375  Q 5.515625 40.671875 11.671875 48.328125  Q 17.828125 56 27.875 56  Q 33.9375 56 38.28125 53.609375  Q 42.625 51.21875 45.40625 46.390625  L 45.40625 54.6875  L 54.390625 54.6875  z "
               id="DejaVuSans-67" />
            <path
               d="M 45.40625 46.390625  L 45.40625 75.984375  L 54.390625 75.984375  L 54.390625 0  L 45.40625 0  L 45.40625 8.203125  Q 42.578125 3.328125 38.25 0.953125  Q 33.9375 -1.421875 27.875 -1.421875  Q 17.96875 -1.421875 11.734375 6.484375  Q 5.515625 14.40625 5.515625 27.296875  Q 5.515625 40.1875 11.734375 48.09375  Q 17.96875 56 27.875 56  Q 33.9375 56 38.25 53.625  Q 42.578125 51.265625 45.40625 46.390625  M 14.796875 27.296875  Q 14.796875 17.390625 18.875 11.75  Q 22.953125 6.109375 30.078125 6.109375  Q 37.203125 6.109375 41.296875 11.75  Q 45.40625 17.390625 45.40625 27.296875  Q 45.40625 37.203125 41.296875 42.84375  Q 37.203125 48.484375 30.078125 48.484375  Q 22.953125 48.484375 18.875 42.84375  Q 14.796875 37.203125 14.796875 27.296875  "
               id="DejaVuSans-64" />
            <path
               d="M 56.203125 29.59375  L 56.203125 25.203125  L 14.890625 25.203125  Q 15.484375 15.921875 20.484375 11.0625  Q 25.484375 6.203125 34.421875 6.203125  Q 39.59375 6.203125 44.453125 7.46875  Q 49.3125 8.734375 54.109375 11.28125  L 54.109375 2.78125  Q 49.265625 0.734375 44.1875 -0.34375  Q 39.109375 -1.421875 33.890625 -1.421875  Q 20.796875 -1.421875 13.15625 6.1875  Q 5.515625 13.8125 5.515625 26.8125  Q 5.515625 40.234375 12.765625 48.109375  Q 20.015625 56 32.328125 56  Q 43.359375 56 49.78125 48.890625  Q 56.203125 41.796875 56.203125 29.59375  M 47.21875 32.234375  Q 47.125 39.59375 43.09375 43.984375  Q 39.0625 48.390625 32.421875 48.390625  Q 24.90625 48.390625 20.390625 44.140625  Q 15.875 39.890625 15.1875 32.171875  z "
               id="DejaVuSans-65" />
            <path
               d="M 3.328125 72.90625  L 13.28125 72.90625  L 28.609375 11.28125  L 43.890625 72.90625  L 54.984375 72.90625  L 70.3125 11.28125  L 85.59375 72.90625  L 95.609375 72.90625  L 77.296875 0  L 64.890625 0  L 49.515625 63.28125  L 33.984375 0  L 21.578125 0  z "
               id="DejaVuSans-57" />
            <path
               d="M 34.28125 27.484375  Q 23.390625 27.484375 19.1875 25  Q 14.984375 22.515625 14.984375 16.5  Q 14.984375 11.71875 18.140625 8.90625  Q 21.296875 6.109375 26.703125 6.109375  Q 34.1875 6.109375 38.703125 11.40625  Q 43.21875 16.703125 43.21875 25.484375  L 43.21875 27.484375  z M 52.203125 31.203125  L 52.203125 0  L 43.21875 0  L 43.21875 8.296875  Q 40.140625 3.328125 35.546875 0.953125  Q 30.953125 -1.421875 24.3125 -1.421875  Q 15.921875 -1.421875 10.953125 3.296875  Q 6 8.015625 6 15.921875  Q 6 25.140625 12.171875 29.828125  Q 18.359375 34.515625 30.609375 34.515625  L 43.21875 34.515625  L 43.21875 35.40625  Q 43.21875 41.609375 39.140625 45  Q 35.0625 48.390625 27.6875 48.390625  Q 23 48.390625 18.546875 47.265625  Q 14.109375 46.140625 10.015625 43.890625  L 10.015625 52.203125  Q 14.9375 54.109375 19.578125 55.046875  Q 24.21875 56 28.609375 56  Q 40.484375 56 46.34375 49.84375  Q 52.203125 43.703125 52.203125 31.203125  "
               id="DejaVuSans-61" />
          </defs>
          <g
             transform="translate(191.3175 90.95175)scale(0.144 -0.144)"
             id="g454">
            <use
               xlink:href="#DejaVuSans-57"
               id="use456" />
            <use
               x="98.845703125"
               xlink:href="#DejaVuSans-69"
               id="use458" />
            <use
               x="126.62890625"
               xlink:href="#DejaVuSans-6c"
               id="use460" />
            <use
               x="154.412109375"
               xlink:href="#DejaVuSans-64"
               id="use462" />
            <use
               x="217.888671875"
               xlink:href="#DejaVuSans-20"
               id="use464" />
            <use
               x="249.67578125"
               xlink:href="#DejaVuSans-4d"
               id="use466" />
            <use
               x="335.955078125"
               xlink:href="#DejaVuSans-65"
               id="use468" />
            <use
               x="397.478515625"
               xlink:href="#DejaVuSans-67"
               id="use470" />
            <use
               x="460.955078125"
               xlink:href="#DejaVuSans-61"
               id="use472" />
            <use
               x="522.234375"
               xlink:href="#DejaVuSans-66"
               id="use474" />
            <use
               x="557.439453125"
               xlink:href="#DejaVuSans-61"
               id="use476" />
            <use
               x="618.71875"
               xlink:href="#DejaVuSans-75"
               id="use478" />
            <use
               x="682.09765625"
               xlink:href="#DejaVuSans-6e"
               id="use480" />
            <use
               x="745.4765625"
               xlink:href="#DejaVuSans-61"
               id="use482" />
          </g>
        </g>
        <g
           id="patch_9">
          <path
             d="M 150.9975 112.08825  L 179.7975 112.08825  L 179.7975 102.00825  L 150.9975 102.00825  z "
             style="fill:#31688e;stroke:#000000;stroke-linejoin:miter;"
             id="path485" />
        </g>
        <g
           id="text_17">
          <!-- Humans -->
          <defs
             id="defs488">
            <path
               d="M 52 44.1875  Q 55.375 50.25 60.0625 53.125  Q 64.75 56 71.09375 56  Q 79.640625 56 84.28125 50.015625  Q 88.921875 44.046875 88.921875 33.015625  L 88.921875 0  L 79.890625 0  L 79.890625 32.71875  Q 79.890625 40.578125 77.09375 44.375  Q 74.3125 48.1875 68.609375 48.1875  Q 61.625 48.1875 57.5625 43.546875  Q 53.515625 38.921875 53.515625 30.90625  L 53.515625 0  L 44.484375 0  L 44.484375 32.71875  Q 44.484375 40.625 41.703125 44.40625  Q 38.921875 48.1875 33.109375 48.1875  Q 26.21875 48.1875 22.15625 43.53125  Q 18.109375 38.875 18.109375 30.90625  L 18.109375 0  L 9.078125 0  L 9.078125 54.6875  L 18.109375 54.6875  L 18.109375 46.1875  Q 21.1875 51.21875 25.484375 53.609375  Q 29.78125 56 35.6875 56  Q 41.65625 56 45.828125 52.96875  Q 50 49.953125 52 44.1875  "
               id="DejaVuSans-6d" />
            <path
               d="M 9.8125 72.90625  L 19.671875 72.90625  L 19.671875 43.015625  L 55.515625 43.015625  L 55.515625 72.90625  L 65.375 72.90625  L 65.375 0  L 55.515625 0  L 55.515625 34.71875  L 19.671875 34.71875  L 19.671875 0  L 9.8125 0  z "
               id="DejaVuSans-48" />
            <path
               d="M 44.28125 53.078125  L 44.28125 44.578125  Q 40.484375 46.53125 36.375 47.5  Q 32.28125 48.484375 27.875 48.484375  Q 21.1875 48.484375 17.84375 46.4375  Q 14.5 44.390625 14.5 40.28125  Q 14.5 37.15625 16.890625 35.375  Q 19.28125 33.59375 26.515625 31.984375  L 29.59375 31.296875  Q 39.15625 29.25 43.1875 25.515625  Q 47.21875 21.78125 47.21875 15.09375  Q 47.21875 7.46875 41.1875 3.015625  Q 35.15625 -1.421875 24.609375 -1.421875  Q 20.21875 -1.421875 15.453125 -0.5625  Q 10.6875 0.296875 5.421875 2  L 5.421875 11.28125  Q 10.40625 8.6875 15.234375 7.390625  Q 20.0625 6.109375 24.8125 6.109375  Q 31.15625 6.109375 34.5625 8.28125  Q 37.984375 10.453125 37.984375 14.40625  Q 37.984375 18.0625 35.515625 20.015625  Q 33.0625 21.96875 24.703125 23.78125  L 21.578125 24.515625  Q 13.234375 26.265625 9.515625 29.90625  Q 5.8125 33.546875 5.8125 39.890625  Q 5.8125 47.609375 11.28125 51.796875  Q 16.75 56 26.8125 56  Q 31.78125 56 36.171875 55.265625  Q 40.578125 54.546875 44.28125 53.078125  "
               id="DejaVuSans-73" />
          </defs>
          <g
             transform="translate(191.3175 112.08825)scale(0.144 -0.144)"
             id="g493">
            <use
               xlink:href="#DejaVuSans-48"
               id="use495" />
            <use
               x="75.1953125"
               xlink:href="#DejaVuSans-75"
               id="use497" />
            <use
               x="138.57421875"
               xlink:href="#DejaVuSans-6d"
               id="use499" />
            <use
               x="235.986328125"
               xlink:href="#DejaVuSans-61"
               id="use501" />
            <use
               x="297.265625"
               xlink:href="#DejaVuSans-6e"
               id="use503" />
            <use
               x="360.64453125"
               xlink:href="#DejaVuSans-73"
               id="use505" />
          </g>
        </g>
        <g
           id="patch_10">
          <path
             d="M 150.9975 133.22475  L 179.7975 133.22475  L 179.7975 123.14475  L 150.9975 123.14475  z "
             style="fill:#35b779;stroke:#000000;stroke-linejoin:miter;"
             id="path508" />
        </g>
        <g
           id="text_18">
          <!-- Cattle -->
          <defs
             id="defs511">
            <path
               d="M 18.3125 70.21875  L 18.3125 54.6875  L 36.8125 54.6875  L 36.8125 47.703125  L 18.3125 47.703125  L 18.3125 18.015625  Q 18.3125 11.328125 20.140625 9.421875  Q 21.96875 7.515625 27.59375 7.515625  L 36.8125 7.515625  L 36.8125 0  L 27.59375 0  Q 17.1875 0 13.234375 3.875  Q 9.28125 7.765625 9.28125 18.015625  L 9.28125 47.703125  L 2.6875 47.703125  L 2.6875 54.6875  L 9.28125 54.6875  L 9.28125 70.21875  z "
               id="DejaVuSans-74" />
            <path
               d="M 64.40625 67.28125  L 64.40625 56.890625  Q 59.421875 61.53125 53.78125 63.8125  Q 48.140625 66.109375 41.796875 66.109375  Q 29.296875 66.109375 22.65625 58.46875  Q 16.015625 50.828125 16.015625 36.375  Q 16.015625 21.96875 22.65625 14.328125  Q 29.296875 6.6875 41.796875 6.6875  Q 48.140625 6.6875 53.78125 8.984375  Q 59.421875 11.28125 64.40625 15.921875  L 64.40625 5.609375  Q 59.234375 2.09375 53.4375 0.328125  Q 47.65625 -1.421875 41.21875 -1.421875  Q 24.65625 -1.421875 15.125 8.703125  Q 5.609375 18.84375 5.609375 36.375  Q 5.609375 53.953125 15.125 64.078125  Q 24.65625 74.21875 41.21875 74.21875  Q 47.75 74.21875 53.53125 72.484375  Q 59.328125 70.75 64.40625 67.28125  "
               id="DejaVuSans-43" />
          </defs>
          <g
             transform="translate(191.3175 133.22475)scale(0.144 -0.144)"
             id="g515">
            <use
               xlink:href="#DejaVuSans-43"
               id="use517" />
            <use
               x="69.82421875"
               xlink:href="#DejaVuSans-61"
               id="use519" />
            <use
               x="131.103515625"
               xlink:href="#DejaVuSans-74"
               id="use521" />
            <use
               x="170.3125"
               xlink:href="#DejaVuSans-74"
               id="use523" />
            <use
               x="209.521484375"
               xlink:href="#DejaVuSans-6c"
               id="use525" />
            <use
               x="237.3046875"
               xlink:href="#DejaVuSans-65"
               id="use527" />
          </g>
        </g>
        <g
           id="patch_11">
          <path
             d="M 150.9975 154.36125  L 179.7975 154.36125  L 179.7975 144.28125  L 150.9975 144.28125  z "
             style="fill:#fde725;stroke:#000000;stroke-linejoin:miter;"
             id="path530" />
        </g>
        <g
           id="text_19">
          <!-- Other Livestock -->
          <defs
             id="defs533">
            <path
               d="M 39.40625 66.21875  Q 28.65625 66.21875 22.328125 58.203125  Q 16.015625 50.203125 16.015625 36.375  Q 16.015625 22.609375 22.328125 14.59375  Q 28.65625 6.59375 39.40625 6.59375  Q 50.140625 6.59375 56.421875 14.59375  Q 62.703125 22.609375 62.703125 36.375  Q 62.703125 50.203125 56.421875 58.203125  Q 50.140625 66.21875 39.40625 66.21875  M 39.40625 74.21875  Q 54.734375 74.21875 63.90625 63.9375  Q 73.09375 53.65625 73.09375 36.375  Q 73.09375 19.140625 63.90625 8.859375  Q 54.734375 -1.421875 39.40625 -1.421875  Q 24.03125 -1.421875 14.8125 8.828125  Q 5.609375 19.09375 5.609375 36.375  Q 5.609375 53.65625 14.8125 63.9375  Q 24.03125 74.21875 39.40625 74.21875  "
               id="DejaVuSans-4f" />
            <path
               d="M 9.8125 72.90625  L 19.671875 72.90625  L 19.671875 8.296875  L 55.171875 8.296875  L 55.171875 0  L 9.8125 0  z "
               id="DejaVuSans-4c" />
            <path
               d="M 30.609375 48.390625  Q 23.390625 48.390625 19.1875 42.75  Q 14.984375 37.109375 14.984375 27.296875  Q 14.984375 17.484375 19.15625 11.84375  Q 23.34375 6.203125 30.609375 6.203125  Q 37.796875 6.203125 41.984375 11.859375  Q 46.1875 17.53125 46.1875 27.296875  Q 46.1875 37.015625 41.984375 42.703125  Q 37.796875 48.390625 30.609375 48.390625  M 30.609375 56  Q 42.328125 56 49.015625 48.375  Q 55.71875 40.765625 55.71875 27.296875  Q 55.71875 13.875 49.015625 6.21875  Q 42.328125 -1.421875 30.609375 -1.421875  Q 18.84375 -1.421875 12.171875 6.21875  Q 5.515625 13.875 5.515625 27.296875  Q 5.515625 40.765625 12.171875 48.375  Q 18.84375 56 30.609375 56  "
               id="DejaVuSans-6f" />
            <path
               d="M 9.078125 75.984375  L 18.109375 75.984375  L 18.109375 31.109375  L 44.921875 54.6875  L 56.390625 54.6875  L 27.390625 29.109375  L 57.625 0  L 45.90625 0  L 18.109375 26.703125  L 18.109375 0  L 9.078125 0  z "
               id="DejaVuSans-6b" />
            <path
               d="M 54.890625 33.015625  L 54.890625 0  L 45.90625 0  L 45.90625 32.71875  Q 45.90625 40.484375 42.875 44.328125  Q 39.84375 48.1875 33.796875 48.1875  Q 26.515625 48.1875 22.3125 43.546875  Q 18.109375 38.921875 18.109375 30.90625  L 18.109375 0  L 9.078125 0  L 9.078125 75.984375  L 18.109375 75.984375  L 18.109375 46.1875  Q 21.34375 51.125 25.703125 53.5625  Q 30.078125 56 35.796875 56  Q 45.21875 56 50.046875 50.171875  Q 54.890625 44.34375 54.890625 33.015625  "
               id="DejaVuSans-68" />
            <path
               d="M 2.984375 54.6875  L 12.5 54.6875  L 29.59375 8.796875  L 46.6875 54.6875  L 56.203125 54.6875  L 35.6875 0  L 23.484375 0  z "
               id="DejaVuSans-76" />
            <path
               d="M 48.78125 52.59375  L 48.78125 44.1875  Q 44.96875 46.296875 41.140625 47.34375  Q 37.3125 48.390625 33.40625 48.390625  Q 24.65625 48.390625 19.8125 42.84375  Q 14.984375 37.3125 14.984375 27.296875  Q 14.984375 17.28125 19.8125 11.734375  Q 24.65625 6.203125 33.40625 6.203125  Q 37.3125 6.203125 41.140625 7.25  Q 44.96875 8.296875 48.78125 10.40625  L 48.78125 2.09375  Q 45.015625 0.34375 40.984375 -0.53125  Q 36.96875 -1.421875 32.421875 -1.421875  Q 20.0625 -1.421875 12.78125 6.34375  Q 5.515625 14.109375 5.515625 27.296875  Q 5.515625 40.671875 12.859375 48.328125  Q 20.21875 56 33.015625 56  Q 37.15625 56 41.109375 55.140625  Q 45.0625 54.296875 48.78125 52.59375  "
               id="DejaVuSans-63" />
            <path
               d="M 41.109375 46.296875  Q 39.59375 47.171875 37.8125 47.578125  Q 36.03125 48 33.890625 48  Q 26.265625 48 22.1875 43.046875  Q 18.109375 38.09375 18.109375 28.8125  L 18.109375 0  L 9.078125 0  L 9.078125 54.6875  L 18.109375 54.6875  L 18.109375 46.1875  Q 20.953125 51.171875 25.484375 53.578125  Q 30.03125 56 36.53125 56  Q 37.453125 56 38.578125 55.875  Q 39.703125 55.765625 41.0625 55.515625  z "
               id="DejaVuSans-72" />
          </defs>
          <g
             transform="translate(191.3175 154.36125)scale(0.144 -0.144)"
             id="g543">
            <use
               xlink:href="#DejaVuSans-4f"
               id="use545" />
            <use
               x="78.7109375"
               xlink:href="#DejaVuSans-74"
               id="use547" />
            <use
               x="117.919921875"
               xlink:href="#DejaVuSans-68"
               id="use549" />
            <use
               x="181.298828125"
               xlink:href="#DejaVuSans-65"
               id="use551" />
            <use
               x="242.822265625"
               xlink:href="#DejaVuSans-72"
               id="use553" />
            <use
               x="283.935546875"
               xlink:href="#DejaVuSans-20"
               id="use555" />
            <use
               x="315.72265625"
               xlink:href="#DejaVuSans-4c"
               id="use557" />
            <use
               x="371.435546875"
               xlink:href="#DejaVuSans-69"
               id="use559" />
            <use
               x="399.21875"
               xlink:href="#DejaVuSans-76"
               id="use561" />
            <use
               x="458.3984375"
               xlink:href="#DejaVuSans-65"
               id="use563" />
            <use
               x="519.921875"
               xlink:href="#DejaVuSans-73"
               id="use565" />
            <use
               x="572.021484375"
               xlink:href="#DejaVuSans-74"
               id="use567" />
            <use
               x="611.23046875"
               xlink:href="#DejaVuSans-6f"
               id="use569" />
            <use
               x="672.412109375"
               xlink:href="#DejaVuSans-63"
               id="use571" />
            <use
               x="727.392578125"
               xlink:href="#DejaVuSans-6b"
               id="use573" />
          </g>
        </g>
      </g>
    </g>
  </g>
  <defs
     id="defs575">
    <clipPath
       id="pbeb68c7df6">
      <rect
         height="536.4"
         width="855.8325"
         x="138.0375"
         y="67.05"
         id="rect578" />
    </clipPath>
  </defs>
</svg>
